<svg width="64" height="64" viewBox="0 0 64 64" fill="none" xmlns="http://www.w3.org/2000/svg">
<rect x="0.5" y="0.5" width="63" height="63" rx="11.5" fill="#FAFAFA"/>
<rect x="0.5" y="0.5" width="63" height="63" rx="11.5" stroke="#DF8B3F"/>
<path d="M56 32C56 18.7452 45.2548 8 32 8C18.7452 8 8 18.7452 8 32C8 43.979 16.7765 53.9081 28.25 55.7084V38.9375H22.1562V32H28.25V26.7125C28.25 20.6975 31.8331 17.375 37.3153 17.375C39.941 17.375 42.6875 17.8438 42.6875 17.8438V23.75H39.6613C36.6798 23.75 35.75 25.6001 35.75 27.4981V32H42.4062L41.3422 38.9375H35.75V55.7084C47.2235 53.9081 56 43.9792 56 32Z" fill="#1877F2"/>
<path d="M41.3422 38.9375L42.4062 32H35.75V27.4981C35.75 25.5999 36.6798 23.75 39.6613 23.75H42.6875V17.8438C42.6875 17.8438 39.941 17.375 37.3151 17.375C31.8331 17.375 28.25 20.6975 28.25 26.7125V32H22.1562V38.9375H28.25V55.7084C29.4905 55.9028 30.7443 56.0003 32 56C33.2557 56.0004 34.5095 55.9029 35.75 55.7084V38.9375H41.3422Z" fill="white"/>
</svg>
