<svg width="24" height="24" viewBox="0 0 24 24" fill="none" xmlns="http://www.w3.org/2000/svg">
<mask id="mask0_1002_2601" style="mask-type:alpha" maskUnits="userSpaceOnUse" x="0" y="0" width="24" height="24">
<rect width="24" height="24" fill="#D9D9D9"/>
</mask>
<g mask="url(#mask0_1002_2601)">
<path d="M19.0984 21.9016L15.5984 18.4516C15.0151 18.6349 14.4234 18.7724 13.8234 18.8641C13.2234 18.9557 12.6151 19.0016 11.9984 19.0016C9.7651 19.0016 7.72344 18.4016 5.87344 17.2016C4.02344 16.0016 2.57344 14.4182 1.52344 12.4516C1.4401 12.3016 1.3776 12.1474 1.33594 11.9891C1.29427 11.8307 1.27344 11.6682 1.27344 11.5016C1.27344 11.3349 1.29427 11.1724 1.33594 11.0141C1.3776 10.8557 1.4401 10.7016 1.52344 10.5516C1.8901 9.90156 2.28177 9.26823 2.69844 8.65156C3.1151 8.0349 3.59844 7.4849 4.14844 7.00156L2.07344 4.90156C1.8901 4.71823 1.79844 4.48906 1.79844 4.21406C1.79844 3.93906 1.89844 3.70156 2.09844 3.50156C2.28177 3.31823 2.5151 3.22656 2.79844 3.22656C3.08177 3.22656 3.3151 3.31823 3.49844 3.50156L20.4984 20.5016C20.6818 20.6849 20.7776 20.9141 20.7859 21.1891C20.7943 21.4641 20.6984 21.7016 20.4984 21.9016C20.3151 22.0849 20.0818 22.1766 19.7984 22.1766C19.5151 22.1766 19.2818 22.0849 19.0984 21.9016ZM11.9984 16.0016C12.1818 16.0016 12.3568 15.9932 12.5234 15.9766C12.6901 15.9599 12.8568 15.9266 13.0234 15.8766L7.62344 10.4766C7.57344 10.6432 7.5401 10.8099 7.52344 10.9766C7.50677 11.1432 7.49844 11.3182 7.49844 11.5016C7.49844 12.7516 7.93594 13.8141 8.81094 14.6891C9.68594 15.5641 10.7484 16.0016 11.9984 16.0016ZM11.9984 4.00156C14.2318 4.00156 16.2776 4.60573 18.1359 5.81406C19.9943 7.0224 21.4484 8.6099 22.4984 10.5766C22.5818 10.7099 22.6443 10.8557 22.6859 11.0141C22.7276 11.1724 22.7484 11.3349 22.7484 11.5016C22.7484 11.6682 22.7318 11.8307 22.6984 11.9891C22.6651 12.1474 22.6068 12.2932 22.5234 12.4266C22.2068 13.0432 21.8526 13.6266 21.4609 14.1766C21.0693 14.7266 20.6318 15.2432 20.1484 15.7266C19.9151 15.9599 19.6401 16.0682 19.3234 16.0516C19.0068 16.0349 18.7318 15.9099 18.4984 15.6766L16.4984 13.6766C16.3818 13.5599 16.3068 13.4224 16.2734 13.2641C16.2401 13.1057 16.2484 12.9432 16.2984 12.7766C16.3651 12.5599 16.4151 12.3516 16.4484 12.1516C16.4818 11.9516 16.4984 11.7349 16.4984 11.5016C16.4984 10.2516 16.0609 9.18906 15.1859 8.31406C14.3109 7.43906 13.2484 7.00156 11.9984 7.00156C11.7651 7.00156 11.5484 7.01823 11.3484 7.05156C11.1484 7.0849 10.9401 7.1349 10.7234 7.20156C10.5568 7.25156 10.3901 7.2599 10.2234 7.22656C10.0568 7.19323 9.9151 7.11823 9.79844 7.00156L8.97344 6.17656C8.65677 5.8599 8.5526 5.49323 8.66094 5.07656C8.76927 4.6599 9.03177 4.39323 9.44844 4.27656C9.8651 4.19323 10.2859 4.12656 10.7109 4.07656C11.1359 4.02656 11.5651 4.00156 11.9984 4.00156ZM13.9734 9.65156C14.1568 9.86823 14.3109 10.1057 14.4359 10.3641C14.5609 10.6224 14.6401 10.8932 14.6734 11.1766C14.6901 11.3099 14.6401 11.4016 14.5234 11.4516C14.4068 11.5016 14.2984 11.4766 14.1984 11.3766L12.1484 9.32656C12.0484 9.22656 12.0276 9.11823 12.0859 9.00156C12.1443 8.8849 12.2401 8.82656 12.3734 8.82656C12.6901 8.8599 12.9818 8.9474 13.2484 9.08906C13.5151 9.23073 13.7568 9.41823 13.9734 9.65156Z" fill="#DF8B3F"/>
</g>
</svg>
