<svg width="64" height="64" viewBox="0 0 64 64" fill="none" xmlns="http://www.w3.org/2000/svg">
<rect x="0.5" y="0.5" width="63" height="63" rx="11.5" fill="#FAFAFA"/>
<rect x="0.5" y="0.5" width="63" height="63" rx="11.5" stroke="#DF8B3F"/>
<path d="M55.5332 27.2996H53.6V27.2H32V36.8H45.5636C43.5848 42.3884 38.2676 46.4 32 46.4C24.0476 46.4 17.6 39.9524 17.6 32C17.6 24.0476 24.0476 17.6 32 17.6C35.6708 17.6 39.0104 18.9848 41.5532 21.2468L48.3416 14.4584C44.0552 10.4636 38.3216 8 32 8C18.746 8 8 18.746 8 32C8 45.254 18.746 56 32 56C45.254 56 56 45.254 56 32C56 30.3908 55.8344 28.82 55.5332 27.2996Z" fill="#FFC107"/>
<path d="M10.7656 20.8292L18.6508 26.612C20.7844 21.3296 25.9516 17.6 31.9984 17.6C35.6692 17.6 39.0088 18.9848 41.5516 21.2468L48.34 14.4584C44.0536 10.4636 38.32 8 31.9984 8C22.78 8 14.7856 13.2044 10.7656 20.8292Z" fill="#FF3D00"/>
<path d="M32.0027 55.9985C38.2019 55.9985 43.8347 53.6261 48.0935 49.7681L40.6655 43.4825C38.175 45.3765 35.1317 46.401 32.0027 46.3985C25.7603 46.3985 20.4599 42.4181 18.4631 36.8633L10.6367 42.8933C14.6087 50.6657 22.6751 55.9985 32.0027 55.9985Z" fill="#4CAF50"/>
<path d="M55.5332 27.3027H53.6V27.2031H32V36.8031H45.5636C44.617 39.4628 42.912 41.7869 40.6592 43.4883L40.6628 43.4859L48.0908 49.7715C47.5652 50.2491 56 44.0031 56 32.0031C56 30.3939 55.8344 28.8231 55.5332 27.3027Z" fill="#1976D2"/>
</svg>
