<svg width="146" height="164" viewBox="0 0 146 164" fill="none" xmlns="http://www.w3.org/2000/svg">
<path d="M106.861 0.5C101.083 0.5 95.145 0.5 89.2471 0.5C76.8117 0.5 66.7354 10.5763 66.7354 23.0117V88.8075C66.7354 92.946 63.3767 96.2847 59.2582 96.2847C49.3418 96.2847 38.4259 96.2847 30.009 96.2847C25.8705 96.2847 22.5117 92.926 22.5117 88.7875C22.5117 79.5509 22.5117 70.7142 22.5117 62.8571C22.5117 56.7793 17.5735 51.8411 11.4958 51.8411H11.2559C5.03815 51.8411 0 56.8792 0 63.097V74.9926C0 99.9434 0 130.272 0 152.224C0 158.442 5.03815 163.48 11.2559 163.48H11.4958C17.5735 163.48 22.5117 158.542 22.5117 152.464C22.5117 144.547 22.5117 135.67 22.5117 126.394C22.5117 122.235 25.8905 118.856 30.0689 118.876L59.2982 118.976C63.4167 118.996 66.7554 122.335 66.7554 126.454C66.7554 133.591 66.7554 143.008 66.7554 152.244C66.7554 158.462 71.7936 163.5 78.0113 163.5C78.0913 163.5 78.1712 163.5 78.2512 163.5C84.329 163.5 89.2671 158.562 89.2671 152.484V86.6283C89.2671 82.4898 92.6059 79.1511 96.7444 79.1511C99.8832 79.1511 103.302 79.1511 106.841 79.1511C128.253 79.1511 145.626 61.7774 145.626 40.3653V39.2657C145.626 17.8536 128.273 0.5 106.861 0.5ZM127.093 29.1495C127.233 29.2894 127.373 29.4493 127.493 29.6093C129.392 32.1483 128.053 36.2468 124.474 38.9259C122.955 40.0454 121.235 40.7652 119.596 40.9651C117.757 41.165 116.157 40.7052 115.098 39.6456C114.958 39.5056 114.818 39.3457 114.698 39.1858C112.798 36.6467 114.138 32.5482 117.717 29.8692C119.216 28.7296 120.955 28.0099 122.595 27.8299C124.434 27.61 126.034 28.0898 127.093 29.1495ZM105.061 26.4305C105.241 24.7911 105.961 23.0517 107.101 21.5523C109.78 17.9536 113.878 16.6341 116.417 18.5334C116.577 18.6533 116.737 18.7933 116.877 18.9332C117.937 19.9928 118.416 21.5922 118.216 23.4316C118.037 25.071 117.317 26.8103 116.177 28.3098C113.498 31.9084 109.4 33.228 106.861 31.3287C106.701 31.2087 106.541 31.0687 106.401 30.9288C105.321 29.8692 104.861 28.2698 105.061 26.4305ZM91.9861 22.332C92.9858 19.9129 94.7451 17.9936 96.6844 17.1939C97.9639 16.674 99.2635 16.6541 100.403 17.1339H100.423C100.943 17.3538 101.403 17.6737 101.803 18.0735C103.682 19.9528 104.022 23.4715 102.642 26.8103C101.643 29.2294 99.8832 31.1487 97.9439 31.9484C96.6644 32.4682 95.3849 32.4882 94.2253 32.0084H94.2053C93.6855 31.7885 93.2257 31.4686 92.8258 31.0687C90.9265 29.1894 90.6066 25.6907 91.9861 22.332ZM111.279 51.9611C111.779 53.9403 112.279 55.9996 111.319 58.0588C110.999 58.8185 110.519 59.5183 109.94 60.0981C107.48 62.5572 103.562 62.6571 101.203 60.298C99.9832 59.0784 99.1235 57.3591 98.1839 55.5597C97.3042 53.8204 96.3845 52.021 95.205 50.8415C94.0254 49.6619 92.2261 48.7422 90.4667 47.8626C88.6474 46.9429 86.928 46.0632 85.7084 44.8437C83.3493 42.4845 83.4293 38.566 85.9084 36.0869C86.4882 35.4871 87.1879 35.0273 87.9476 34.6874C90.0069 33.7278 92.0661 34.2276 94.0454 34.7274C95.7847 35.1672 97.4041 35.5671 99.1835 35.1273C104.062 33.9277 107.021 33.188 109.92 36.1069C112.818 39.0058 112.099 41.9647 110.879 46.8429C110.459 48.6023 110.859 50.2417 111.279 51.9611ZM128.813 49.362C128.013 51.3013 126.114 53.0607 123.694 54.0603C120.336 55.4398 116.837 55.0999 114.938 53.2206C114.538 52.8207 114.218 52.3609 113.998 51.8411V51.8211C113.498 50.6815 113.518 49.382 114.058 48.1025C114.858 46.1632 116.777 44.4038 119.196 43.4042C122.495 42.0447 125.994 42.3646 127.893 44.2039L127.933 44.2439C128.333 44.6438 128.653 45.1036 128.873 45.6234V45.6434C129.372 46.783 129.352 48.0625 128.813 49.362Z" fill="#DF8B3F"/>
</svg>
