<svg width="400" height="66" viewBox="0 0 400 66" fill="none" xmlns="http://www.w3.org/2000/svg">
<path d="M5.1055 51.055C2.26454 51.055 0 48.7493 0 45.9495V5.1055C0 2.26453 2.30571 0 5.1055 0C7.94646 0 10.211 2.30571 10.211 5.1055V15.3165C10.211 18.1575 12.5167 20.422 15.3165 20.422H25.4863C28.3273 20.422 30.5918 18.1163 30.5918 15.3165V5.1055C30.5918 2.26453 32.8975 0 35.6973 0C38.5383 0 40.8028 2.30571 40.8028 5.1055V45.9495C40.8028 48.7904 38.4971 51.055 35.6973 51.055C32.8563 51.055 30.5918 48.7493 30.5918 45.9495V35.7797C30.5918 32.9387 28.2861 30.6742 25.4863 30.6742H15.3577C12.5167 30.6742 10.2522 32.9799 10.2522 35.7797V45.9495C10.2522 48.7493 7.94646 51.055 5.1055 51.055Z" fill="#0A6141"/>
<path d="M84.075 51.0539C83.5809 51.0539 83.0869 50.8069 82.7987 50.3952L80.4518 47.1836C79.9165 46.4837 78.9284 46.319 78.2284 46.8954C77.6932 47.3483 77.1167 47.7601 76.5403 48.1718C75.511 48.9129 74.4405 49.5305 73.2876 50.0658C72.9582 50.2305 72.67 50.354 72.3406 50.4775C69.335 51.7127 66.0411 52.0421 62.8707 51.548C61.3885 51.3422 59.9474 50.9716 58.5475 50.4363C56.2007 49.5305 54.1008 48.213 52.3715 46.4837C50.6011 44.7544 49.2012 42.6546 48.1719 40.1842C47.1425 37.7138 46.6484 34.8728 46.6484 31.6613C46.6484 28.6968 47.1425 25.9794 48.1719 23.509C49.2012 21.0385 50.6011 18.8975 52.3715 17.1271C54.142 15.3566 56.2007 13.9567 58.5475 12.9686C60.8944 11.9804 63.4472 11.4863 66.1234 11.4863C67.3586 11.4863 68.5938 11.651 69.7879 11.9392C70.9819 12.2275 72.1759 12.6804 73.3288 13.2156C74.4816 13.7509 75.5521 14.4096 76.5815 15.1508C77.1991 15.5625 77.7755 16.0154 78.3519 16.5095C79.0107 17.0447 79.9989 16.9624 80.5341 16.3036L82.7987 13.5862C83.0869 13.2156 83.5398 13.0097 83.9927 13.0097H84.075C84.9397 13.0097 85.6396 13.7097 85.6396 14.5743V49.5305C85.6396 50.354 84.9397 51.0539 84.075 51.0539ZM75.8404 31.6613C75.8404 30.3437 75.5933 29.0262 75.0581 27.791C74.564 26.5558 73.864 25.4441 72.9582 24.4971C72.0524 23.5501 71.0642 22.7678 69.8702 22.1914C68.6762 21.615 67.441 21.3268 66.1234 21.3268C64.8059 21.3268 63.5295 21.5326 62.3767 21.9855C61.2238 22.4384 60.1945 23.0972 59.3298 23.9619C58.4652 24.8265 57.7652 25.9382 57.2712 27.2146C56.7771 28.4909 56.53 29.9732 56.53 31.6613C56.53 33.3082 56.7771 34.7905 57.2712 36.108C57.7652 37.3844 58.4652 38.4961 59.3298 39.3607C60.1945 40.2253 61.2238 40.8841 62.3767 41.337C63.5295 41.7899 64.8059 41.9958 66.1234 41.9958C67.441 41.9958 68.7174 41.7076 69.8702 41.1312C71.0642 40.5547 72.0524 39.7724 72.9582 38.8255C73.864 37.8785 74.5228 36.7668 75.0581 35.5316C75.5933 34.2552 75.8404 32.9788 75.8404 31.6613Z" fill="#0A6141"/>
<path d="M97.9504 65.5881C95.233 65.5881 93.0508 63.406 93.0508 60.6885V14.492C93.0508 13.6273 93.7507 12.9274 94.6154 12.9274H94.6565C95.1094 12.9274 95.5624 13.1333 95.8506 13.4627L98.2386 16.2624C98.815 16.9212 99.762 17.0036 100.462 16.4271C100.997 15.9742 101.574 15.5213 102.191 15.1096C103.221 14.3685 104.332 13.7509 105.444 13.2156C106.556 12.6804 107.75 12.2686 108.944 11.9392C110.138 11.6099 111.373 11.4863 112.608 11.4863C115.284 11.4863 117.796 11.9804 120.184 12.9274C122.531 13.8744 124.631 15.2331 126.36 17.0036C128.13 18.774 129.53 20.8739 130.56 23.3443C131.589 25.8147 132.083 28.5733 132.083 31.5789C132.083 34.7081 131.589 37.5491 130.56 40.0195C129.53 42.4899 128.13 44.6309 126.36 46.4013C124.59 48.1306 122.531 49.4894 120.184 50.3952C117.837 51.301 115.284 51.7951 112.608 51.7951C111.743 51.7951 110.92 51.7127 110.055 51.5068C109.232 51.301 108.367 51.0539 107.544 50.7246C106.72 50.3952 105.938 50.0246 105.115 49.654C104.044 49.1188 102.809 49.9011 102.809 51.0539V60.565C102.85 63.3648 100.627 65.5881 97.9504 65.5881ZM122.325 31.6613C122.325 30.0555 122.078 28.6145 121.543 27.2969C121.049 26.0205 120.349 24.9088 119.443 24.0442C118.537 23.1796 117.549 22.4796 116.355 21.9855C115.161 21.4915 113.926 21.2856 112.567 21.2856C111.249 21.2856 109.973 21.5326 108.82 21.9855C107.626 22.4796 106.638 23.1384 105.732 24.0442C104.826 24.95 104.168 26.0205 103.632 27.2969C103.097 28.5733 102.85 30.0143 102.85 31.6613C102.85 33.1847 103.097 34.6258 103.632 35.9021C104.126 37.1785 104.826 38.2902 105.732 39.196C106.597 40.1018 107.626 40.8018 108.82 41.2959C110.014 41.7899 111.249 42.037 112.567 42.037C113.885 42.037 115.161 41.7899 116.355 41.2959C117.549 40.8018 118.578 40.1018 119.443 39.196C120.308 38.2902 121.007 37.2197 121.543 35.9021C122.078 34.5846 122.325 33.1847 122.325 31.6613Z" fill="#0A6141"/>
<path d="M142.337 65.5881C139.62 65.5881 137.438 63.406 137.438 60.6885V14.4508C137.438 13.5862 138.137 12.8862 139.002 12.8862H139.084C139.537 12.8862 139.99 13.0921 140.278 13.4215L142.667 16.2624C143.202 16.9212 144.19 17.0036 144.849 16.4271C145.384 15.9742 145.96 15.5213 146.578 15.1096C147.607 14.3685 148.719 13.7509 149.831 13.2156C150.942 12.6804 152.136 12.2686 153.33 11.9392C154.524 11.6099 155.76 11.4863 156.995 11.4863C159.671 11.4863 162.183 11.9804 164.571 12.9274C166.918 13.8744 169.017 15.2331 170.747 17.0036C172.517 18.774 173.917 20.8739 174.946 23.3443C175.976 25.8147 176.47 28.5733 176.47 31.5789C176.47 34.7081 175.976 37.5491 174.946 40.0195C173.917 42.4899 172.517 44.6309 170.747 46.4013C168.976 48.1306 166.918 49.4894 164.571 50.3952C162.224 51.301 159.671 51.7951 156.995 51.7951C156.13 51.7951 155.307 51.7127 154.442 51.5068C153.619 51.301 152.754 51.0539 151.931 50.7246C151.107 50.3952 150.325 50.0246 149.501 49.654H149.46C148.431 49.1188 147.196 49.9011 147.196 51.0539V60.6473C147.237 63.406 145.055 65.5881 142.337 65.5881ZM166.712 31.6613C166.712 30.0555 166.465 28.6145 165.929 27.2969C165.435 26.0205 164.735 24.9088 163.83 24.0442C162.924 23.1796 161.936 22.4796 160.742 21.9855C159.548 21.4915 158.312 21.2856 156.954 21.2856C155.636 21.2856 154.36 21.5326 153.207 21.9855C152.013 22.4796 151.025 23.1384 150.119 24.0442C149.213 24.95 148.554 26.0205 148.019 27.2969C147.484 28.5733 147.237 30.0143 147.237 31.6613C147.237 33.1847 147.484 34.6258 148.019 35.9021C148.513 37.1785 149.213 38.2902 150.119 39.196C150.984 40.1018 152.013 40.8018 153.207 41.2959C154.401 41.7899 155.636 42.037 156.954 42.037C158.271 42.037 159.548 41.7899 160.742 41.2959C161.936 40.8018 162.965 40.1018 163.83 39.196C164.694 38.2902 165.394 37.2197 165.929 35.9021C166.465 34.5846 166.712 33.1847 166.712 31.6613Z" fill="#0A6141"/>
<path d="M191.045 60.7712C191.045 58.0537 193.268 55.8304 196.027 55.8716H196.48C197.427 55.8716 198.332 55.7069 199.238 55.4187C200.144 55.1304 200.926 54.6775 201.667 54.1423C202.409 53.607 203.067 52.9483 203.644 52.2071C204.22 51.466 204.673 50.6425 205.044 49.7779C203.973 50.2308 202.903 50.6837 201.791 51.1366C200.679 51.5895 199.568 51.7954 198.456 51.7954C196.109 51.7954 193.886 51.3837 191.827 50.5602C189.768 49.7367 187.957 48.5427 186.392 47.0193C184.828 45.4959 183.634 43.6431 182.728 41.4197C181.822 39.2375 181.41 36.7671 181.41 34.0497V17.8685C181.41 15.1511 183.592 12.9689 186.31 12.9689C188.945 12.9689 191.086 15.1099 191.086 17.745V34.0497C191.086 35.4084 191.292 36.6024 191.662 37.5906C192.033 38.5787 192.568 39.4434 193.227 40.1022C193.886 40.7609 194.668 41.2962 195.574 41.6256C196.48 41.955 197.427 42.1197 198.456 42.1197C199.444 42.1197 200.391 41.8726 201.297 41.4197C202.203 40.9668 202.944 40.3492 203.644 39.5669C204.303 38.8258 204.838 37.9611 205.208 36.973C205.579 36.026 205.785 35.0378 205.785 34.0085V17.8274C205.785 15.1099 207.967 12.9277 210.684 12.9277C213.402 12.9277 215.584 15.1099 215.584 17.8274V46.2782C215.543 48.9544 215.049 51.466 214.019 53.8129C212.99 56.1598 211.59 58.2184 209.82 59.9889C208.049 61.7594 205.991 63.1181 203.644 64.1474C201.297 65.1767 198.785 65.6708 196.109 65.6708H195.944C193.186 65.5885 191.045 63.4475 191.045 60.7712Z" fill="#0A6141"/>
<path d="M302.915 52.9465C302.421 52.9465 301.927 52.6995 301.638 52.2877L299.292 49.0762C298.756 48.3763 297.768 48.2116 297.068 48.788C296.533 49.2409 295.957 49.6526 295.38 50.0644C294.351 50.8055 293.28 51.4231 292.127 51.9584C291.798 52.123 291.51 52.2466 291.18 52.3701C288.175 53.6053 284.881 53.9347 281.711 53.4406C280.228 53.2347 278.787 52.8642 277.387 52.3289C275.041 51.4231 272.941 50.1056 271.211 48.3763C269.482 46.647 268.041 44.5471 267.012 42.0767C265.982 39.5652 265.488 36.7654 265.488 33.5539C265.488 30.5894 265.982 27.8719 267.012 25.4015C268.041 22.9311 269.441 20.7901 271.211 19.0197C272.982 17.2492 275.041 15.8493 277.387 14.8611C279.734 13.873 282.287 13.3789 284.963 13.3789C286.198 13.3789 287.434 13.5436 288.628 13.8318C289.822 14.12 291.016 14.5729 292.169 15.1082C293.321 15.6434 294.392 16.3022 295.421 17.0433C296.039 17.4551 296.615 17.908 297.192 18.4021C297.851 18.9373 298.839 18.855 299.374 18.1962L301.638 15.4787C301.927 15.1082 302.38 14.9023 302.833 14.9023H302.915C303.78 14.9023 304.479 15.6023 304.479 16.4669V51.4231C304.438 52.2877 303.78 52.9465 302.915 52.9465ZM294.68 33.5539C294.68 32.2363 294.433 30.9188 293.898 29.6836C293.363 28.4484 292.704 27.3367 291.798 26.3897C290.933 25.4427 289.904 24.6604 288.71 24.084C287.516 23.5076 286.281 23.2193 284.963 23.2193C283.646 23.2193 282.369 23.4252 281.217 23.8781C280.022 24.331 279.034 24.9898 278.17 25.8544C277.305 26.7191 276.605 27.8308 276.111 29.1071C275.617 30.3835 275.37 31.8658 275.37 33.5539C275.37 35.242 275.617 36.683 276.111 38.0006C276.605 39.277 277.305 40.3886 278.17 41.2533C279.034 42.1179 280.064 42.7767 281.217 43.2296C282.411 43.6825 283.646 43.8884 284.963 43.8884C286.281 43.8884 287.557 43.6002 288.71 43.0237C289.863 42.4473 290.892 41.665 291.798 40.718C292.663 39.771 293.363 38.6594 293.898 37.4242C294.433 36.189 294.68 34.8714 294.68 33.5539Z" fill="#0A6141"/>
<path d="M359.985 39.1927C359.985 41.169 359.614 43.063 358.832 44.8334C358.091 46.6039 357.02 48.1273 355.703 49.4448C354.385 50.7624 352.862 51.7917 351.091 52.5328C349.321 53.274 347.427 53.6857 345.409 53.6857C343.598 53.6857 341.869 53.3563 340.222 52.7387C338.575 52.1211 337.051 51.1741 335.693 49.9801C334.375 51.1741 332.893 52.1211 331.205 52.7387C329.558 53.3563 327.828 53.6857 325.976 53.6857C323.958 53.6857 322.064 53.3151 320.335 52.5328C318.564 51.7917 317.041 50.7212 315.723 49.4448C314.406 48.1273 313.377 46.6039 312.594 44.8334C311.853 43.063 311.441 41.169 311.441 39.1927V19.8C311.441 17.0826 313.624 14.9004 316.341 14.9004C319.017 14.9004 321.158 17.0414 321.158 19.7177V39.1927C321.158 39.8515 321.282 40.4691 321.529 41.0455C321.776 41.6219 322.105 42.1572 322.558 42.5689C323.011 43.0218 323.505 43.3512 324.082 43.5982C324.658 43.8453 325.276 43.9688 325.934 43.9688C326.593 43.9688 327.211 43.8453 327.828 43.5982C328.405 43.3512 328.94 43.0218 329.393 42.5689C329.846 42.116 330.175 41.6219 330.464 41.0455C330.711 40.4691 330.834 39.8515 330.834 39.1927V19.8C330.834 17.0826 333.016 14.9004 335.734 14.9004C338.369 14.9004 340.51 17.0414 340.51 19.6765V39.1927C340.51 39.8515 340.633 40.4691 340.922 41.0455C341.21 41.6219 341.539 42.1572 341.992 42.5689C342.445 43.0218 342.939 43.3512 343.515 43.5982C344.092 43.8453 344.709 43.9688 345.368 43.9688C346.027 43.9688 346.645 43.8453 347.262 43.5982C347.839 43.3512 348.374 43.0218 348.827 42.5689C349.28 42.116 349.609 41.6219 349.897 41.0455C350.144 40.4691 350.309 39.8515 350.309 39.1927V19.8C350.309 17.0826 352.491 14.9004 355.209 14.9004C357.844 14.9004 359.985 17.0414 359.985 19.6765V39.1927Z" fill="#0A6141"/>
<path d="M387.978 52.9467H370.52C367.885 52.9467 365.744 50.8057 365.744 48.1706C365.744 45.4531 367.926 43.271 370.644 43.271H387.937C388.596 43.271 389.172 43.0239 389.666 42.571C390.16 42.0769 390.366 41.5417 390.366 40.8417C390.366 40.1418 390.119 39.6889 389.666 39.483C389.172 39.2771 388.637 39.1536 387.937 39.1536H377.808C376.12 39.1536 374.555 38.8242 373.073 38.2066C371.591 37.5479 370.315 36.6832 369.244 35.5715C368.174 34.4599 367.309 33.1835 366.65 31.7012C366.033 30.219 365.703 28.6544 365.703 26.9663C365.703 25.2782 366.033 23.7136 366.65 22.2314C367.268 20.7491 368.132 19.4727 369.244 18.4022C370.356 17.2906 371.632 16.4671 373.073 15.8083C374.555 15.1907 376.12 14.8613 377.808 14.8613H392.589C395.307 14.8613 397.489 17.0435 397.489 19.761C397.489 22.3961 395.348 24.5371 392.713 24.5371H377.808C377.149 24.5371 376.573 24.7841 376.079 25.237C375.585 25.7311 375.379 26.2664 375.379 26.9663C375.379 27.6663 375.626 28.2427 376.079 28.7368C376.573 29.2308 377.108 29.4779 377.808 29.4779H387.937C389.584 29.4779 391.148 29.7661 392.631 30.3013C394.113 30.8366 395.389 31.6189 396.46 32.6482C397.571 33.6364 398.436 34.8304 399.054 36.2303C399.712 37.6302 400.001 39.1536 400.001 40.8417C400.001 42.5298 399.671 44.0944 399.054 45.5767C398.395 47.0177 397.53 48.3353 396.46 49.4058C395.348 50.5175 394.072 51.3821 392.631 51.9997C391.231 52.6585 389.625 52.9467 387.978 52.9467Z" fill="#0A6141"/>
<path d="M261.859 16.9209C261.364 15.1916 260.665 13.5446 259.8 12.0624C258.894 10.539 257.824 9.18026 256.588 7.90389C255.353 6.66869 253.953 5.59818 252.471 4.69237C250.948 3.78655 249.342 3.12778 247.613 2.6337C245.883 2.13962 244.072 1.89258 242.219 1.89258H229.661C225.338 1.89258 221.797 5.39231 221.797 9.75669V48.0479C221.797 50.7654 223.979 52.9476 226.696 52.9476H227.108C229.826 52.9476 232.008 50.7654 232.008 48.0479V42.7366H242.219C245.019 42.7366 247.654 42.2013 250.124 41.1308C252.595 40.0603 254.777 38.6192 256.63 36.7664C258.482 34.9136 259.923 32.7314 260.994 30.261C262.064 27.7906 262.6 25.1555 262.6 22.3557C262.559 20.4618 262.353 18.6501 261.859 16.9209ZM249.054 15.6445C250.042 15.521 250.906 15.768 251.442 16.3444C251.524 16.4268 251.606 16.5091 251.648 16.5915C252.677 17.9502 251.936 20.1324 250.042 21.5734C249.218 22.191 248.313 22.5616 247.448 22.644C246.46 22.7675 245.595 22.5204 245.06 21.944C244.977 21.8617 244.895 21.7793 244.854 21.697C243.825 20.3382 244.566 18.1561 246.46 16.715C247.242 16.0974 248.148 15.7268 249.054 15.6445ZM239.707 14.9034C239.79 14.0387 240.201 13.0917 240.778 12.3094C242.219 10.3743 244.401 9.67435 245.76 10.7037C245.842 10.786 245.924 10.8272 246.007 10.9095C246.583 11.486 246.83 12.3506 246.707 13.2976C246.624 14.1622 246.213 15.1092 245.636 15.8915C244.195 17.8267 242.013 18.5266 240.654 17.4973C240.572 17.4149 240.49 17.3738 240.407 17.2914C239.831 16.715 239.584 15.8503 239.707 14.9034ZM232.708 12.7212C233.243 11.4448 234.19 10.4155 235.219 10.0037C235.919 9.71552 236.578 9.71552 237.196 9.96256C237.484 10.0861 237.731 10.2508 237.937 10.4566C238.925 11.4448 239.131 13.3388 238.39 15.1092C237.854 16.3856 236.907 17.4149 235.878 17.8267C235.178 18.1149 234.519 18.1149 233.902 17.8678C233.614 17.7443 233.367 17.5796 233.161 17.3738C232.173 16.3444 231.967 14.4916 232.708 12.7212ZM243.001 28.4906C243.248 29.5611 243.536 30.6316 243.042 31.7433C242.878 32.155 242.631 32.5256 242.301 32.8138C240.984 34.1313 238.884 34.1725 237.649 32.9373C236.99 32.2785 236.537 31.3727 236.043 30.4257C235.59 29.4787 235.096 28.5317 234.437 27.9141C233.819 27.2965 232.831 26.8025 231.926 26.3084C230.937 25.8143 230.032 25.3614 229.373 24.7026C228.096 23.4263 228.179 21.3676 229.455 20.05C229.784 19.7206 230.114 19.4736 230.526 19.3089C231.637 18.8148 232.708 19.0619 233.778 19.3501C234.684 19.5971 235.59 19.803 236.496 19.556C239.09 18.8972 240.654 18.5266 242.219 20.0912C243.783 21.6558 243.372 23.2204 242.754 25.8143C242.548 26.7201 242.795 27.5848 243.001 28.4906ZM252.347 27.1319C251.936 28.1612 250.906 29.1082 249.63 29.6434C247.86 30.3845 245.966 30.1787 244.977 29.1905C244.772 28.9847 244.607 28.7376 244.483 28.4494C244.236 27.8318 244.236 27.1319 244.525 26.4731C244.936 25.4437 245.966 24.4968 247.242 23.9615C249.012 23.2204 250.865 23.3851 251.895 24.3732L251.936 24.4144C252.142 24.6203 252.306 24.8673 252.43 25.1555C252.636 25.732 252.636 26.4319 252.347 27.1319Z" fill="#0A6141"/>
</svg>
