<svg width="32" height="36" viewBox="0 0 32 36" fill="none" xmlns="http://www.w3.org/2000/svg">
<path d="M23.4816 0C22.212 0 20.9072 0 19.6112 0C16.8786 0 14.6645 2.21427 14.6645 4.94696V19.4056C14.6645 20.315 13.9264 21.0487 13.0214 21.0487C10.8424 21.0487 8.44371 21.0487 6.59418 21.0487C5.68479 21.0487 4.94673 20.3106 4.94673 19.4012C4.94673 17.3715 4.94673 15.4296 4.94673 13.703C4.94673 12.3674 3.86161 11.2822 2.52608 11.2822H2.47337C1.10708 11.2822 0 12.3894 0 13.7557V16.3698C0 21.8527 0 28.5175 0 33.3414C0 34.7078 1.10708 35.8149 2.47337 35.8149H2.52608C3.86161 35.8149 4.94673 34.7298 4.94673 33.3942C4.94673 31.6544 4.94673 29.7037 4.94673 27.6652C4.94673 26.7514 5.68918 26.0089 6.60736 26.0133L13.0302 26.0352C13.9352 26.0396 14.6689 26.7733 14.6689 27.6784C14.6689 29.2468 14.6689 31.3161 14.6689 33.3458C14.6689 34.7122 15.7759 35.8193 17.1422 35.8193C17.1598 35.8193 17.1774 35.8193 17.1949 35.8193C18.5305 35.8193 19.6156 34.7341 19.6156 33.3986V18.9267C19.6156 18.0173 20.3493 17.2836 21.2586 17.2836C21.9484 17.2836 22.6996 17.2836 23.4772 17.2836C28.1823 17.2836 32 13.4657 32 8.76042V8.51878C32 3.81346 28.1867 0 23.4816 0ZM27.9275 6.29573C27.9583 6.32648 27.989 6.36163 28.0154 6.39678C28.4327 6.95474 28.1384 7.85538 27.352 8.4441C27.0181 8.69013 26.6403 8.84829 26.2801 8.89222C25.8759 8.93616 25.5244 8.83511 25.2916 8.60226C25.2608 8.5715 25.2301 8.53636 25.2037 8.50121C24.7864 7.94325 25.0807 7.0426 25.8671 6.45389C26.1966 6.20347 26.5788 6.0453 26.939 6.00576C27.3432 5.95744 27.6947 6.06288 27.9275 6.29573ZM23.0862 5.69823C23.1258 5.33797 23.2839 4.95574 23.5343 4.62624C24.123 3.83543 25.0236 3.54547 25.5816 3.96284C25.6167 3.9892 25.6518 4.01995 25.6826 4.05071C25.9154 4.28356 26.0209 4.63503 25.9769 5.03922C25.9374 5.39948 25.7792 5.7817 25.5288 6.11121C24.9401 6.90202 24.0395 7.19198 23.4816 6.77461C23.4465 6.74825 23.4113 6.71749 23.3806 6.68674C23.1433 6.45389 23.0423 6.10242 23.0862 5.69823ZM20.2131 4.79758C20.4327 4.26598 20.8193 3.84422 21.2455 3.66848C21.5266 3.55425 21.8122 3.54986 22.0626 3.6553H22.067C22.1812 3.70363 22.2823 3.77392 22.3701 3.86179C22.7831 4.27477 22.8578 5.048 22.5546 5.7817C22.335 6.3133 21.9484 6.73507 21.5222 6.9108C21.2411 7.02503 20.9599 7.02942 20.7051 6.92398H20.7007C20.5865 6.87566 20.4854 6.80536 20.3976 6.71749C19.9802 6.30452 19.9099 5.53567 20.2131 4.79758ZM24.4525 11.3086C24.5623 11.7435 24.6722 12.1961 24.4613 12.6486C24.391 12.8155 24.2856 12.9693 24.1582 13.0967C23.6178 13.6371 22.7567 13.659 22.2383 13.1406C21.9703 12.8726 21.7814 12.4948 21.575 12.0994C21.3817 11.7172 21.1796 11.3218 20.9204 11.0626C20.6612 10.8033 20.2658 10.6013 19.8792 10.4079C19.4794 10.2058 19.1016 10.0125 18.8336 9.74454C18.3152 9.22612 18.3328 8.36501 18.8775 7.82023C19.0049 7.68843 19.1587 7.58738 19.3256 7.5127C19.7781 7.30181 20.2306 7.41165 20.6656 7.52148C21.0478 7.61814 21.4036 7.70601 21.7946 7.60935C22.8666 7.34575 23.5168 7.18319 24.1538 7.82463C24.7908 8.46167 24.6326 9.11189 24.3646 10.1839C24.2724 10.5705 24.3602 10.9308 24.4525 11.3086ZM28.3053 10.7374C28.1296 11.1636 27.7122 11.5502 27.1807 11.7699C26.4426 12.073 25.6738 11.9983 25.2565 11.5854C25.1686 11.4975 25.0983 11.3965 25.05 11.2822V11.2778C24.9401 11.0274 24.9445 10.7418 25.0632 10.4607C25.2389 10.0345 25.6606 9.64788 26.1922 9.42821C26.9171 9.12946 27.6859 9.19976 28.1032 9.60395L28.112 9.61274C28.1999 9.70061 28.2702 9.80165 28.3185 9.91588V9.92028C28.4283 10.1707 28.4239 10.4519 28.3053 10.7374Z" fill="#DF8B3F"/>
</svg>
