<svg width="300" height="50" viewBox="0 0 300 50" fill="none" xmlns="http://www.w3.org/2000/svg">
<path d="M3.82917 38.3645C1.69842 38.3645 0 36.6319 0 34.528V3.83645C0 1.70165 1.7293 0 3.82917 0C5.95992 0 7.65834 1.73259 7.65834 3.83645V11.5093C7.65834 13.6441 9.38764 15.3458 11.4875 15.3458H19.115C21.2457 15.3458 22.9441 13.6132 22.9441 11.5093V3.83645C22.9441 1.70165 24.6734 0 26.7733 0C28.904 0 30.6025 1.73259 30.6025 3.83645V34.528C30.6025 36.6628 28.8732 38.3645 26.7733 38.3645C24.6426 38.3645 22.9441 36.6319 22.9441 34.528V26.8861C22.9441 24.7513 21.2148 23.0496 19.115 23.0496H11.5184C9.38764 23.0496 7.68922 24.7822 7.68922 26.8861V34.528C7.68922 36.6319 5.95992 38.3645 3.82917 38.3645Z" fill="#DF8C40"/>
<path d="M63.0625 38.3653C62.6919 38.3653 62.3213 38.1797 62.1052 37.8703L60.345 35.457C59.9435 34.9311 59.2024 34.8073 58.6775 35.2404C58.276 35.5808 57.8437 35.8902 57.4114 36.1996C56.6393 36.7565 55.8365 37.2206 54.9718 37.6228C54.7248 37.7465 54.5086 37.8393 54.2616 37.9321C52.0073 38.8603 49.5369 39.1078 47.1591 38.7366C46.0474 38.5819 44.9666 38.3034 43.9166 37.9012C42.1564 37.2206 40.5815 36.2305 39.2846 34.9311C37.9567 33.6316 36.9068 32.0537 36.1348 30.1974C35.3628 28.341 34.9922 26.2062 34.9922 23.793C34.9922 21.5654 35.3628 19.5234 36.1348 17.667C36.9068 15.8107 37.9567 14.2019 39.2846 12.8715C40.6124 11.5411 42.1564 10.4892 43.9166 9.74662C45.6768 9.00408 47.5914 8.63281 49.5986 8.63281C50.525 8.63281 51.4514 8.75657 52.347 8.97314C53.2425 9.18972 54.138 9.53005 55.0027 9.93225C55.8673 10.3345 56.6702 10.8295 57.4422 11.3864C57.9054 11.6958 58.3378 12.0361 58.7701 12.4074C59.2642 12.8096 60.0053 12.7477 60.4067 12.2527L62.1052 10.2107C62.3213 9.93226 62.661 9.77756 63.0007 9.77756H63.0625C63.711 9.77756 64.2359 10.3035 64.2359 10.9532V37.2206C64.2359 37.8393 63.711 38.3653 63.0625 38.3653ZM56.8864 23.793C56.8864 22.8029 56.7011 21.8129 56.2997 20.8847C55.9291 19.9565 55.4041 19.1212 54.7248 18.4096C54.0454 17.698 53.3043 17.1101 52.4087 16.677C51.5132 16.2438 50.5868 16.0273 49.5986 16.0273C48.6104 16.0273 47.6532 16.182 46.7885 16.5223C45.9239 16.8626 45.1518 17.3576 44.5033 18.0074C43.8549 18.6571 43.3299 19.4924 42.9593 20.4516C42.5888 21.4107 42.4035 22.5245 42.4035 23.793C42.4035 25.0305 42.5888 26.1444 42.9593 27.1344C43.3299 28.0935 43.8549 28.9289 44.5033 29.5786C45.1518 30.2283 45.9239 30.7233 46.7885 31.0637C47.6532 31.404 48.6104 31.5587 49.5986 31.5587C50.5868 31.5587 51.5441 31.3421 52.4087 30.909C53.3043 30.4758 54.0454 29.888 54.7248 29.1764C55.4041 28.4648 55.8982 27.6294 56.2997 26.7013C56.7011 25.7421 56.8864 24.783 56.8864 23.793Z" fill="#DF8C40"/>
<path d="M73.4638 49.2868C71.4257 49.2868 69.7891 47.647 69.7891 45.6051V10.8914C69.7891 10.2416 70.314 9.71568 70.9625 9.71568H70.9934C71.3331 9.71568 71.6728 9.87038 71.8889 10.1179L73.68 12.2218C74.1123 12.7168 74.8226 12.7787 75.3475 12.3455C75.749 12.0052 76.1813 11.6648 76.6445 11.3555C77.4165 10.7986 78.2503 10.3345 79.0841 9.93225C79.9178 9.53005 80.8134 9.22066 81.7089 8.97314C82.6044 8.72563 83.5308 8.63281 84.4572 8.63281C86.4645 8.63281 88.3482 9.00408 90.1392 9.71568C91.8994 10.4273 93.4743 11.4483 94.7713 12.7787C96.0992 14.109 97.1491 15.6869 97.9211 17.5433C98.6931 19.3996 99.0637 21.4725 99.0637 23.7311C99.0637 26.0825 98.6931 28.2173 97.9211 30.0736C97.1491 31.93 96.0992 33.5388 94.7713 34.8692C93.4434 36.1686 91.8994 37.1896 90.1392 37.8703C88.3791 38.5509 86.4645 38.9222 84.4572 38.9222C83.8088 38.9222 83.1911 38.8603 82.5427 38.7056C81.9251 38.5509 81.2766 38.3653 80.659 38.1178C80.0413 37.8703 79.4546 37.5918 78.837 37.3134C78.0341 36.9112 77.1077 37.499 77.1077 38.3653V45.5122C77.1386 47.6161 75.4711 49.2868 73.4638 49.2868ZM91.745 23.793C91.745 22.5864 91.5597 21.5035 91.1583 20.5134C90.7877 19.5543 90.2628 18.719 89.5834 18.0692C88.904 17.4195 88.1629 16.8936 87.2674 16.5223C86.3718 16.151 85.4454 15.9963 84.4264 15.9963C83.4382 15.9963 82.4809 16.182 81.6162 16.5223C80.7207 16.8936 79.9796 17.3886 79.3002 18.0692C78.6209 18.7499 78.1268 19.5543 77.7253 20.5134C77.3239 21.4725 77.1386 22.5554 77.1386 23.793C77.1386 24.9377 77.3239 26.0206 77.7253 26.9797C78.0959 27.9388 78.6209 28.7742 79.3002 29.4548C79.9487 30.1355 80.7207 30.6615 81.6162 31.0327C82.5118 31.404 83.4382 31.5896 84.4264 31.5896C85.4145 31.5896 86.3718 31.404 87.2674 31.0327C88.1629 30.6615 88.9349 30.1355 89.5834 29.4548C90.2319 28.7742 90.7568 27.9698 91.1583 26.9797C91.5597 25.9897 91.745 24.9377 91.745 23.793Z" fill="#DF8C40"/>
<path d="M106.753 49.2868C104.715 49.2868 103.078 47.647 103.078 45.6051V10.8604C103.078 10.2107 103.603 9.68475 104.252 9.68475H104.313C104.653 9.68475 104.993 9.83944 105.209 10.0869L107 12.2218C107.401 12.7168 108.143 12.7787 108.637 12.3455C109.038 12.0052 109.47 11.6648 109.934 11.3555C110.706 10.7986 111.539 10.3345 112.373 9.93225C113.207 9.53005 114.102 9.22066 114.998 8.97314C115.893 8.72563 116.82 8.63281 117.746 8.63281C119.754 8.63281 121.637 9.00408 123.428 9.71568C125.188 10.4273 126.763 11.4483 128.06 12.7787C129.388 14.109 130.438 15.6869 131.21 17.5433C131.982 19.3996 132.353 21.4725 132.353 23.7311C132.353 26.0825 131.982 28.2173 131.21 30.0736C130.438 31.93 129.388 33.5388 128.06 34.8692C126.733 36.1686 125.188 37.1896 123.428 37.8703C121.668 38.5509 119.754 38.9222 117.746 38.9222C117.098 38.9222 116.48 38.8603 115.832 38.7056C115.214 38.5509 114.566 38.3653 113.948 38.1178C113.33 37.8703 112.744 37.5918 112.126 37.3134H112.095C111.323 36.9112 110.397 37.499 110.397 38.3653V45.5741C110.428 47.647 108.791 49.2868 106.753 49.2868ZM125.034 23.793C125.034 22.5864 124.849 21.5035 124.447 20.5134C124.077 19.5543 123.552 18.719 122.872 18.0692C122.193 17.4195 121.452 16.8936 120.556 16.5223C119.661 16.151 118.734 15.9963 117.715 15.9963C116.727 15.9963 115.77 16.182 114.905 16.5223C114.01 16.8936 113.269 17.3886 112.589 18.0692C111.91 18.7499 111.416 19.5543 111.014 20.5134C110.613 21.4725 110.428 22.5554 110.428 23.793C110.428 24.9377 110.613 26.0206 111.014 26.9797C111.385 27.9388 111.91 28.7742 112.589 29.4548C113.238 30.1355 114.01 30.6615 114.905 31.0327C115.801 31.404 116.727 31.5896 117.715 31.5896C118.704 31.5896 119.661 31.404 120.556 31.0327C121.452 30.6615 122.224 30.1355 122.872 29.4548C123.521 28.7742 124.046 27.9698 124.447 26.9797C124.849 25.9897 125.034 24.9377 125.034 23.793Z" fill="#DF8C40"/>
<path d="M143.281 45.6641C143.281 43.6222 144.948 41.9514 147.017 41.9824H147.357C148.067 41.9824 148.747 41.8586 149.426 41.6421C150.105 41.4255 150.692 41.0852 151.248 40.6829C151.804 40.2807 152.298 39.7857 152.73 39.2288C153.162 38.6719 153.502 38.0531 153.78 37.4034C152.977 37.7437 152.174 38.0841 151.34 38.4244C150.507 38.7647 149.673 38.9194 148.839 38.9194C147.079 38.9194 145.411 38.61 143.867 37.9912C142.323 37.3725 140.965 36.4752 139.791 35.3305C138.618 34.1857 137.722 32.7935 137.043 31.1228C136.363 29.483 136.055 27.6266 136.055 25.5847V13.4256C136.055 11.3836 137.691 9.74383 139.729 9.74383C141.706 9.74383 143.312 11.3527 143.312 13.3328V25.5847C143.312 26.6056 143.466 27.5029 143.744 28.2454C144.022 28.988 144.423 29.6377 144.917 30.1327C145.411 30.6277 145.998 31.0299 146.678 31.2775C147.357 31.525 148.067 31.6487 148.839 31.6487C149.58 31.6487 150.291 31.4631 150.97 31.1228C151.649 30.7824 152.205 30.3183 152.73 29.7305C153.224 29.1736 153.626 28.5239 153.904 27.7813C154.181 27.0697 154.336 26.3272 154.336 25.5537V13.3946C154.336 11.3527 155.973 9.71289 158.011 9.71289C160.049 9.71289 161.685 11.3527 161.685 13.3946V34.7736C161.655 36.7846 161.284 38.6719 160.512 40.4354C159.74 42.199 158.69 43.7459 157.362 45.0763C156.034 46.4067 154.49 47.4277 152.73 48.2011C150.97 48.9746 149.086 49.3459 147.079 49.3459H146.955C144.886 49.284 143.281 47.6752 143.281 45.6641Z" fill="#DF8C40"/>
<path d="M227.18 39.7872C226.809 39.7872 226.439 39.6015 226.222 39.2921L224.462 36.8789C224.061 36.3529 223.32 36.2292 222.795 36.6623C222.393 37.0027 221.961 37.312 221.529 37.6214C220.757 38.1783 219.954 38.6424 219.089 39.0446C218.842 39.1684 218.626 39.2612 218.379 39.354C216.124 40.2822 213.654 40.5297 211.276 40.1584C210.165 40.0037 209.084 39.7253 208.034 39.3231C206.274 38.6424 204.699 37.6524 203.402 36.3529C202.105 35.0535 201.024 33.4756 200.252 31.6192C199.48 29.732 199.109 27.6281 199.109 25.2149C199.109 22.9872 199.48 20.9453 200.252 19.0889C201.024 17.2326 202.074 15.6237 203.402 14.2933C204.73 12.963 206.274 11.911 208.034 11.1685C209.794 10.426 211.709 10.0547 213.716 10.0547C214.642 10.0547 215.569 10.1784 216.464 10.395C217.36 10.6116 218.255 10.9519 219.12 11.3541C219.985 11.7563 220.787 12.2514 221.559 12.8083C222.023 13.1177 222.455 13.458 222.887 13.8293C223.381 14.2315 224.122 14.1696 224.524 13.6746L226.222 11.6326C226.439 11.3541 226.778 11.1994 227.118 11.1994H227.18C227.828 11.1994 228.353 11.7254 228.353 12.3751V38.6424C228.322 39.2921 227.828 39.7872 227.18 39.7872ZM221.004 25.2149C221.004 24.2248 220.818 23.2347 220.417 22.3066C220.015 21.3784 219.521 20.543 218.842 19.8314C218.193 19.1198 217.421 18.532 216.526 18.0989C215.63 17.6657 214.704 17.4491 213.716 17.4491C212.728 17.4491 211.77 17.6038 210.906 17.9442C210.01 18.2845 209.269 18.7795 208.621 19.4292C207.972 20.079 207.447 20.9143 207.077 21.8734C206.706 22.8325 206.521 23.9463 206.521 25.2149C206.521 26.4834 206.706 27.5662 207.077 28.5563C207.447 29.5154 207.972 30.3507 208.621 31.0005C209.269 31.6502 210.041 32.1452 210.906 32.4855C211.801 32.8259 212.728 32.9806 213.716 32.9806C214.704 32.9806 215.661 32.764 216.526 32.3308C217.391 31.8977 218.163 31.3099 218.842 30.5983C219.49 29.8867 220.015 29.0513 220.417 28.1231C220.818 27.195 221.004 26.2049 221.004 25.2149Z" fill="#DF8C40"/>
<path d="M269.986 29.4513C269.986 30.9364 269.708 32.3596 269.121 33.69C268.566 35.0204 267.763 36.1651 266.775 37.1552C265.786 38.1452 264.644 38.9187 263.316 39.4756C261.988 40.0325 260.568 40.3419 259.054 40.3419C257.696 40.3419 256.399 40.0944 255.164 39.6303C253.928 39.1662 252.786 38.4546 251.767 37.5574C250.779 38.4546 249.667 39.1662 248.401 39.6303C247.165 40.0944 245.869 40.3419 244.479 40.3419C242.966 40.3419 241.545 40.0635 240.248 39.4756C238.92 38.9187 237.778 38.1143 236.79 37.1552C235.802 36.1651 235.03 35.0204 234.443 33.69C233.887 32.3596 233.578 30.9364 233.578 29.4513V14.879C233.578 12.837 235.215 11.1973 237.253 11.1973C239.26 11.1973 240.866 12.8061 240.866 14.8171V29.4513C240.866 29.9464 240.959 30.4105 241.144 30.8436C241.329 31.2767 241.576 31.679 241.916 31.9883C242.256 32.3287 242.626 32.5762 243.058 32.7618C243.491 32.9475 243.954 33.0403 244.448 33.0403C244.942 33.0403 245.405 32.9475 245.869 32.7618C246.301 32.5762 246.702 32.3287 247.042 31.9883C247.382 31.648 247.629 31.2767 247.845 30.8436C248.03 30.4105 248.123 29.9464 248.123 29.4513V14.879C248.123 12.837 249.759 11.1973 251.798 11.1973C253.774 11.1973 255.38 12.8061 255.38 14.7862V29.4513C255.38 29.9464 255.472 30.4105 255.688 30.8436C255.905 31.2767 256.152 31.679 256.491 31.9883C256.831 32.3287 257.202 32.5762 257.634 32.7618C258.066 32.9475 258.529 33.0403 259.024 33.0403C259.518 33.0403 259.981 32.9475 260.444 32.7618C260.876 32.5762 261.278 32.3287 261.618 31.9883C261.957 31.648 262.204 31.2767 262.42 30.8436C262.606 30.4105 262.729 29.9464 262.729 29.4513V14.879C262.729 12.837 264.366 11.1973 266.404 11.1973C268.38 11.1973 269.986 12.8061 269.986 14.7862V29.4513Z" fill="#DF8C40"/>
<path d="M290.98 39.7866H277.886C275.91 39.7866 274.304 38.1778 274.304 36.1977C274.304 34.1557 275.941 32.516 277.979 32.516H290.949C291.443 32.516 291.875 32.3303 292.246 31.99C292.616 31.6187 292.771 31.2165 292.771 30.6905C292.771 30.1646 292.585 29.8243 292.246 29.6696C291.875 29.5149 291.474 29.422 290.949 29.422H283.352C282.086 29.422 280.913 29.1745 279.801 28.7104C278.689 28.2154 277.732 27.5657 276.929 26.7303C276.126 25.895 275.478 24.9359 274.984 23.8221C274.52 22.7083 274.273 21.5326 274.273 20.2641C274.273 18.9956 274.52 17.8199 274.984 16.7061C275.447 15.5923 276.095 14.6332 276.929 13.8287C277.763 12.9934 278.72 12.3746 279.801 11.8796C280.913 11.4155 282.086 11.168 283.352 11.168H294.438C296.476 11.168 298.113 12.8077 298.113 14.8497C298.113 16.8298 296.507 18.4387 294.531 18.4387H283.352C282.858 18.4387 282.426 18.6243 282.055 18.9646C281.685 19.3359 281.53 19.7381 281.53 20.2641C281.53 20.79 281.716 21.2232 282.055 21.5945C282.426 21.9657 282.827 22.1514 283.352 22.1514H290.949C292.184 22.1514 293.358 22.3679 294.469 22.7701C295.581 23.1723 296.538 23.7602 297.341 24.5337C298.175 25.2762 298.823 26.1734 299.287 27.2254C299.781 28.2773 299.997 29.422 299.997 30.6905C299.997 31.9591 299.75 33.1347 299.287 34.2485C298.792 35.3314 298.144 36.3215 297.341 37.1259C296.507 37.9612 295.55 38.611 294.469 39.075C293.419 39.5701 292.215 39.7866 290.98 39.7866Z" fill="#DF8C40"/>
<path d="M196.398 12.7166C196.028 11.4172 195.503 10.1796 194.854 9.06579C194.175 7.92104 193.372 6.90005 192.445 5.94094C191.519 5.01276 190.469 4.20835 189.357 3.52769C188.215 2.84703 187.011 2.352 185.714 1.98073C184.417 1.60946 183.058 1.42383 181.668 1.42383H172.25C169.007 1.42383 166.352 4.05365 166.352 7.3332V36.1066C166.352 38.1486 167.988 39.7883 170.026 39.7883H170.335C172.373 39.7883 174.01 38.1486 174.01 36.1066V32.1154H181.668C183.768 32.1154 185.744 31.7132 187.597 30.9088C189.45 30.1044 191.087 29.0215 192.476 27.6293C193.866 26.237 194.947 24.5972 195.75 22.7409C196.553 20.8845 196.954 18.9044 196.954 16.8006C196.923 15.3774 196.769 14.016 196.398 12.7166ZM186.794 11.7575C187.535 11.6647 188.184 11.8503 188.585 12.2835C188.647 12.3453 188.709 12.4072 188.74 12.4691C189.512 13.4901 188.956 15.1299 187.536 16.2127C186.918 16.6768 186.239 16.9553 185.59 17.0171C184.849 17.11 184.2 16.9243 183.799 16.4912C183.737 16.4293 183.675 16.3674 183.645 16.3055C182.873 15.2845 183.428 13.6448 184.849 12.5619C185.436 12.0978 186.115 11.8194 186.794 11.7575ZM179.785 11.2006C179.846 10.5509 180.155 9.83926 180.587 9.25142C181.668 7.79728 183.305 7.27132 184.324 8.0448C184.386 8.10668 184.447 8.13762 184.509 8.19949C184.942 8.63264 185.127 9.28236 185.034 9.99396C184.972 10.6437 184.664 11.3553 184.231 11.9431C183.15 13.3973 181.514 13.9232 180.495 13.1498C180.433 13.0879 180.371 13.0569 180.309 12.9951C179.877 12.5619 179.692 11.9122 179.785 11.2006ZM174.535 9.56081C174.936 8.6017 175.647 7.82823 176.419 7.51883C176.944 7.30226 177.438 7.30226 177.901 7.48789C178.117 7.58071 178.302 7.70447 178.457 7.85916C179.198 8.6017 179.352 10.0249 178.796 11.3553C178.395 12.3144 177.685 13.0879 176.913 13.3973C176.388 13.6138 175.894 13.6138 175.43 13.4282C175.214 13.3354 175.029 13.2116 174.875 13.0569C174.133 12.2835 173.979 10.8912 174.535 9.56081ZM182.255 21.4105C182.44 22.2149 182.656 23.0193 182.286 23.8547C182.162 24.1641 181.977 24.4425 181.73 24.6591C180.742 25.6492 179.167 25.6801 178.241 24.7519C177.746 24.2569 177.407 23.5762 177.036 22.8646C176.696 22.153 176.326 21.4414 175.832 20.9773C175.369 20.5133 174.628 20.142 173.948 19.7707C173.207 19.3995 172.528 19.0591 172.034 18.5641C171.076 17.605 171.138 16.058 172.095 15.068C172.342 14.8205 172.589 14.6348 172.898 14.5111C173.732 14.1398 174.535 14.3254 175.338 14.542C176.017 14.7276 176.696 14.8823 177.376 14.6967C179.321 14.2017 180.495 13.9232 181.668 15.0989C182.842 16.2746 182.533 17.4503 182.07 19.3995C181.915 20.0801 182.101 20.7298 182.255 21.4105ZM189.265 20.3895C188.956 21.163 188.184 21.8746 187.227 22.2768C185.899 22.8337 184.478 22.679 183.737 21.9365C183.583 21.7818 183.459 21.5961 183.367 21.3796C183.181 20.9155 183.181 20.3895 183.398 19.8945C183.706 19.121 184.478 18.4094 185.436 18.0072C186.763 17.4503 188.153 17.574 188.925 18.3166L188.956 18.3475C189.11 18.5022 189.234 18.6878 189.327 18.9044C189.481 19.3376 189.481 19.8635 189.265 20.3895Z" fill="#DF8C40"/>
</svg>
