<svg width="400" height="66" viewBox="0 0 400 66" fill="none" xmlns="http://www.w3.org/2000/svg">
<path d="M5.1055 51.055C2.26454 51.055 0 48.7493 0 45.9495V5.1055C0 2.26453 2.30571 0 5.1055 0C7.94646 0 10.211 2.30571 10.211 5.1055V15.3165C10.211 18.1575 12.5167 20.422 15.3165 20.422H25.4863C28.3273 20.422 30.5918 18.1163 30.5918 15.3165V5.1055C30.5918 2.26453 32.8975 0 35.6973 0C38.5383 0 40.8028 2.30571 40.8028 5.1055V45.9495C40.8028 48.7904 38.4971 51.055 35.6973 51.055C32.8563 51.055 30.5918 48.7493 30.5918 45.9495V35.7797C30.5918 32.9387 28.2861 30.6742 25.4863 30.6742H15.3577C12.5167 30.6742 10.2522 32.9799 10.2522 35.7797V45.9495C10.2522 48.7493 7.94646 51.055 5.1055 51.055Z" fill="black"/>
<path d="M84.075 51.052C83.5809 51.052 83.0869 50.8049 82.7987 50.3932L80.4518 47.1817C79.9165 46.4817 78.9284 46.317 78.2284 46.8935C77.6932 47.3464 77.1167 47.7581 76.5403 48.1699C75.511 48.911 74.4405 49.5286 73.2876 50.0638C72.9582 50.2285 72.67 50.352 72.3406 50.4756C69.335 51.7108 66.0411 52.0401 62.8707 51.5461C61.3885 51.3402 59.9474 50.9696 58.5475 50.4344C56.2007 49.5286 54.1008 48.211 52.3715 46.4817C50.6011 44.7525 49.2012 42.6526 48.1719 40.1822C47.1425 37.7118 46.6484 34.8709 46.6484 31.6593C46.6484 28.6948 47.1425 25.9774 48.1719 23.507C49.2012 21.0366 50.6011 18.8956 52.3715 17.1251C54.142 15.3547 56.2007 13.9548 58.5475 12.9666C60.8944 11.9785 63.4472 11.4844 66.1234 11.4844C67.3586 11.4844 68.5938 11.6491 69.7879 11.9373C70.9819 12.2255 72.1759 12.6784 73.3288 13.2137C74.4816 13.7489 75.5521 14.4077 76.5815 15.1488C77.1991 15.5605 77.7755 16.0134 78.3519 16.5075C79.0107 17.0428 79.9989 16.9604 80.5341 16.3017L82.7987 13.5842C83.0869 13.2137 83.5398 13.0078 83.9927 13.0078H84.075C84.9397 13.0078 85.6396 13.7077 85.6396 14.5724V49.5286C85.6396 50.352 84.9397 51.052 84.075 51.052ZM75.8404 31.6593C75.8404 30.3418 75.5933 29.0242 75.0581 27.789C74.564 26.5538 73.864 25.4422 72.9582 24.4952C72.0524 23.5482 71.0642 22.7659 69.8702 22.1895C68.6762 21.613 67.441 21.3248 66.1234 21.3248C64.8059 21.3248 63.5295 21.5307 62.3767 21.9836C61.2238 22.4365 60.1945 23.0953 59.3298 23.9599C58.4652 24.8245 57.7652 25.9362 57.2712 27.2126C56.7771 28.489 56.53 29.9712 56.53 31.6593C56.53 33.3063 56.7771 34.7885 57.2712 36.1061C57.7652 37.3824 58.4652 38.4941 59.3298 39.3587C60.1945 40.2234 61.2238 40.8822 62.3767 41.3351C63.5295 41.788 64.8059 41.9938 66.1234 41.9938C67.441 41.9938 68.7174 41.7056 69.8702 41.1292C71.0642 40.5528 72.0524 39.7705 72.9582 38.8235C73.864 37.8765 74.5228 36.7648 75.0581 35.5296C75.5933 34.2533 75.8404 32.9769 75.8404 31.6593Z" fill="black"/>
<path d="M97.9504 65.5862C95.233 65.5862 93.0508 63.404 93.0508 60.6866V14.49C93.0508 13.6254 93.7507 12.9254 94.6154 12.9254H94.6565C95.1094 12.9254 95.5624 13.1313 95.8506 13.4607L98.2386 16.2605C98.815 16.9193 99.762 17.0016 100.462 16.4252C100.997 15.9723 101.574 15.5194 102.191 15.1076C103.221 14.3665 104.332 13.7489 105.444 13.2137C106.556 12.6784 107.75 12.2667 108.944 11.9373C110.138 11.6079 111.373 11.4844 112.608 11.4844C115.284 11.4844 117.796 11.9785 120.184 12.9254C122.531 13.8724 124.631 15.2312 126.36 17.0016C128.13 18.7721 129.53 20.8719 130.56 23.3423C131.589 25.8127 132.083 28.5713 132.083 31.577C132.083 34.7062 131.589 37.5471 130.56 40.0175C129.53 42.4879 128.13 44.6289 126.36 46.3994C124.59 48.1287 122.531 49.4874 120.184 50.3932C117.837 51.299 115.284 51.7931 112.608 51.7931C111.743 51.7931 110.92 51.7108 110.055 51.5049C109.232 51.299 108.367 51.052 107.544 50.7226C106.72 50.3932 105.938 50.0226 105.115 49.6521C104.044 49.1168 102.809 49.8991 102.809 51.052V60.563C102.85 63.3628 100.627 65.5862 97.9504 65.5862ZM122.325 31.6593C122.325 30.0536 122.078 28.6125 121.543 27.295C121.049 26.0186 120.349 24.9069 119.443 24.0423C118.537 23.1776 117.549 22.4777 116.355 21.9836C115.161 21.4895 113.926 21.2836 112.567 21.2836C111.249 21.2836 109.973 21.5307 108.82 21.9836C107.626 22.4777 106.638 23.1364 105.732 24.0423C104.826 24.9481 104.168 26.0186 103.632 27.295C103.097 28.5713 102.85 30.0124 102.85 31.6593C102.85 33.1827 103.097 34.6238 103.632 35.9002C104.126 37.1766 104.826 38.2882 105.732 39.1941C106.597 40.0999 107.626 40.7998 108.82 41.2939C110.014 41.788 111.249 42.035 112.567 42.035C113.885 42.035 115.161 41.788 116.355 41.2939C117.549 40.7998 118.578 40.0999 119.443 39.1941C120.308 38.2882 121.007 37.2177 121.543 35.9002C122.078 34.5826 122.325 33.1827 122.325 31.6593Z" fill="black"/>
<path d="M142.337 65.5862C139.62 65.5862 137.438 63.404 137.438 60.6866V14.4489C137.438 13.5842 138.137 12.8843 139.002 12.8843H139.084C139.537 12.8843 139.99 13.0901 140.278 13.4195L142.667 16.2605C143.202 16.9193 144.19 17.0016 144.849 16.4252C145.384 15.9723 145.96 15.5194 146.578 15.1076C147.607 14.3665 148.719 13.7489 149.831 13.2137C150.942 12.6784 152.136 12.2667 153.33 11.9373C154.524 11.6079 155.76 11.4844 156.995 11.4844C159.671 11.4844 162.183 11.9785 164.571 12.9254C166.918 13.8724 169.017 15.2312 170.747 17.0016C172.517 18.7721 173.917 20.8719 174.946 23.3423C175.976 25.8127 176.47 28.5713 176.47 31.577C176.47 34.7062 175.976 37.5471 174.946 40.0175C173.917 42.4879 172.517 44.6289 170.747 46.3994C168.976 48.1287 166.918 49.4874 164.571 50.3932C162.224 51.299 159.671 51.7931 156.995 51.7931C156.13 51.7931 155.307 51.7108 154.442 51.5049C153.619 51.299 152.754 51.052 151.931 50.7226C151.107 50.3932 150.325 50.0226 149.501 49.6521H149.46C148.431 49.1168 147.196 49.8991 147.196 51.052V60.6454C147.237 63.404 145.055 65.5862 142.337 65.5862ZM166.712 31.6593C166.712 30.0536 166.465 28.6125 165.929 27.295C165.435 26.0186 164.735 24.9069 163.83 24.0423C162.924 23.1776 161.936 22.4777 160.742 21.9836C159.548 21.4895 158.312 21.2836 156.954 21.2836C155.636 21.2836 154.36 21.5307 153.207 21.9836C152.013 22.4777 151.025 23.1364 150.119 24.0423C149.213 24.9481 148.554 26.0186 148.019 27.295C147.484 28.5713 147.237 30.0124 147.237 31.6593C147.237 33.1827 147.484 34.6238 148.019 35.9002C148.513 37.1766 149.213 38.2882 150.119 39.1941C150.984 40.0999 152.013 40.7998 153.207 41.2939C154.401 41.788 155.636 42.035 156.954 42.035C158.271 42.035 159.548 41.788 160.742 41.2939C161.936 40.7998 162.965 40.0999 163.83 39.1941C164.694 38.2882 165.394 37.2177 165.929 35.9002C166.465 34.5826 166.712 33.1827 166.712 31.6593Z" fill="black"/>
<path d="M191.045 60.7692C191.045 58.0518 193.268 55.8284 196.027 55.8696H196.48C197.427 55.8696 198.332 55.7049 199.238 55.4167C200.144 55.1285 200.926 54.6756 201.667 54.1403C202.409 53.6051 203.067 52.9463 203.644 52.2052C204.22 51.4641 204.673 50.6406 205.044 49.7759C203.973 50.2289 202.903 50.6818 201.791 51.1347C200.679 51.5876 199.568 51.7934 198.456 51.7934C196.109 51.7934 193.886 51.3817 191.827 50.5582C189.768 49.7348 187.957 48.5407 186.392 47.0173C184.828 45.4939 183.634 43.6411 182.728 41.4178C181.822 39.2356 181.41 36.7652 181.41 34.0477V17.8666C181.41 15.1491 183.592 12.967 186.31 12.967C188.945 12.967 191.086 15.108 191.086 17.7431V34.0477C191.086 35.4064 191.292 36.6005 191.662 37.5886C192.033 38.5768 192.568 39.4414 193.227 40.1002C193.886 40.759 194.668 41.2942 195.574 41.6236C196.48 41.953 197.427 42.1177 198.456 42.1177C199.444 42.1177 200.391 41.8707 201.297 41.4178C202.203 40.9648 202.944 40.3472 203.644 39.565C204.303 38.8238 204.838 37.9592 205.208 36.971C205.579 36.024 205.785 35.0359 205.785 34.0065V17.8254C205.785 15.108 207.967 12.9258 210.684 12.9258C213.402 12.9258 215.584 15.108 215.584 17.8254V46.2762C215.543 48.9525 215.049 51.4641 214.019 53.8109C212.99 56.1578 211.59 58.2165 209.82 59.9869C208.049 61.7574 205.991 63.1161 203.644 64.1455C201.297 65.1748 198.785 65.6689 196.109 65.6689H195.944C193.186 65.5865 191.045 63.4455 191.045 60.7692Z" fill="black"/>
<path d="M302.915 52.9465C302.421 52.9465 301.927 52.6995 301.638 52.2877L299.292 49.0762C298.756 48.3763 297.768 48.2116 297.068 48.788C296.533 49.2409 295.957 49.6526 295.38 50.0644C294.351 50.8055 293.28 51.4231 292.127 51.9584C291.798 52.123 291.51 52.2466 291.18 52.3701C288.175 53.6053 284.881 53.9347 281.711 53.4406C280.228 53.2347 278.787 52.8642 277.387 52.3289C275.041 51.4231 272.941 50.1056 271.211 48.3763C269.482 46.647 268.041 44.5471 267.012 42.0767C265.982 39.5652 265.488 36.7654 265.488 33.5539C265.488 30.5894 265.982 27.8719 267.012 25.4015C268.041 22.9311 269.441 20.7901 271.211 19.0197C272.982 17.2492 275.041 15.8493 277.387 14.8611C279.734 13.873 282.287 13.3789 284.963 13.3789C286.198 13.3789 287.434 13.5436 288.628 13.8318C289.822 14.12 291.016 14.5729 292.169 15.1082C293.321 15.6434 294.392 16.3022 295.421 17.0433C296.039 17.4551 296.615 17.908 297.192 18.4021C297.851 18.9373 298.839 18.855 299.374 18.1962L301.638 15.4787C301.927 15.1082 302.38 14.9023 302.833 14.9023H302.915C303.78 14.9023 304.479 15.6023 304.479 16.4669V51.4231C304.438 52.2877 303.78 52.9465 302.915 52.9465ZM294.68 33.5539C294.68 32.2363 294.433 30.9188 293.898 29.6836C293.363 28.4484 292.704 27.3367 291.798 26.3897C290.933 25.4427 289.904 24.6604 288.71 24.084C287.516 23.5076 286.281 23.2193 284.963 23.2193C283.646 23.2193 282.369 23.4252 281.217 23.8781C280.022 24.331 279.034 24.9898 278.17 25.8544C277.305 26.7191 276.605 27.8308 276.111 29.1071C275.617 30.3835 275.37 31.8658 275.37 33.5539C275.37 35.242 275.617 36.683 276.111 38.0006C276.605 39.277 277.305 40.3886 278.17 41.2533C279.034 42.1179 280.064 42.7767 281.217 43.2296C282.411 43.6825 283.646 43.8884 284.963 43.8884C286.281 43.8884 287.557 43.6002 288.71 43.0237C289.863 42.4473 290.892 41.665 291.798 40.718C292.663 39.771 293.363 38.6594 293.898 37.4242C294.433 36.189 294.68 34.8714 294.68 33.5539Z" fill="black"/>
<path d="M359.985 39.1907C359.985 41.167 359.614 43.061 358.832 44.8315C358.091 46.6019 357.02 48.1253 355.703 49.4429C354.385 50.7604 352.862 51.7898 351.091 52.5309C349.321 53.272 347.427 53.6837 345.409 53.6837C343.598 53.6837 341.869 53.3544 340.222 52.7368C338.575 52.1192 337.051 51.1722 335.693 49.9781C334.375 51.1722 332.893 52.1192 331.205 52.7368C329.558 53.3544 327.828 53.6837 325.976 53.6837C323.958 53.6837 322.064 53.3132 320.335 52.5309C318.564 51.7898 317.041 50.7193 315.723 49.4429C314.406 48.1253 313.377 46.6019 312.594 44.8315C311.853 43.061 311.441 41.167 311.441 39.1907V19.7981C311.441 17.0806 313.624 14.8984 316.341 14.8984C319.017 14.8984 321.158 17.0395 321.158 19.7157V39.1907C321.158 39.8495 321.282 40.4671 321.529 41.0435C321.776 41.62 322.105 42.1552 322.558 42.5669C323.011 43.0198 323.505 43.3492 324.082 43.5963C324.658 43.8433 325.276 43.9668 325.934 43.9668C326.593 43.9668 327.211 43.8433 327.828 43.5963C328.405 43.3492 328.94 43.0198 329.393 42.5669C329.846 42.114 330.175 41.62 330.464 41.0435C330.711 40.4671 330.834 39.8495 330.834 39.1907V19.7981C330.834 17.0806 333.016 14.8984 335.734 14.8984C338.369 14.8984 340.51 17.0395 340.51 19.6746V39.1907C340.51 39.8495 340.633 40.4671 340.922 41.0435C341.21 41.62 341.539 42.1552 341.992 42.5669C342.445 43.0198 342.939 43.3492 343.515 43.5963C344.092 43.8433 344.709 43.9668 345.368 43.9668C346.027 43.9668 346.645 43.8433 347.262 43.5963C347.839 43.3492 348.374 43.0198 348.827 42.5669C349.28 42.114 349.609 41.62 349.897 41.0435C350.144 40.4671 350.309 39.8495 350.309 39.1907V19.7981C350.309 17.0806 352.491 14.8984 355.209 14.8984C357.844 14.8984 359.985 17.0395 359.985 19.6746V39.1907Z" fill="black"/>
<path d="M387.978 52.9487H370.52C367.885 52.9487 365.744 50.8076 365.744 48.1725C365.744 45.4551 367.926 43.2729 370.644 43.2729H387.937C388.596 43.2729 389.172 43.0259 389.666 42.573C390.16 42.0789 390.366 41.5436 390.366 40.8437C390.366 40.1437 390.119 39.6908 389.666 39.485C389.172 39.2791 388.637 39.1556 387.937 39.1556H377.808C376.12 39.1556 374.555 38.8262 373.073 38.2086C371.591 37.5498 370.315 36.6852 369.244 35.5735C368.174 34.4618 367.309 33.1854 366.65 31.7032C366.033 30.221 365.703 28.6564 365.703 26.9683C365.703 25.2801 366.033 23.7156 366.65 22.2333C367.268 20.7511 368.132 19.4747 369.244 18.4042C370.356 17.2925 371.632 16.469 373.073 15.8103C374.555 15.1927 376.12 14.8633 377.808 14.8633H392.589C395.307 14.8633 397.489 17.0455 397.489 19.7629C397.489 22.398 395.348 24.539 392.713 24.539H377.808C377.149 24.539 376.573 24.7861 376.079 25.239C375.585 25.7331 375.379 26.2683 375.379 26.9683C375.379 27.6682 375.626 28.2446 376.079 28.7387C376.573 29.2328 377.108 29.4798 377.808 29.4798H387.937C389.584 29.4798 391.148 29.768 392.631 30.3033C394.113 30.8385 395.389 31.6208 396.46 32.6502C397.571 33.6383 398.436 34.8324 399.054 36.2323C399.712 37.6322 400.001 39.1556 400.001 40.8437C400.001 42.5318 399.671 44.0964 399.054 45.5786C398.395 47.0197 397.53 48.3372 396.46 49.4077C395.348 50.5194 394.072 51.3841 392.631 52.0017C391.231 52.6604 389.625 52.9487 387.978 52.9487Z" fill="black"/>
<path d="M261.859 16.9189C261.364 15.1896 260.665 13.5427 259.8 12.0604C258.894 10.537 257.824 9.17831 256.588 7.90194C255.353 6.66674 253.953 5.59623 252.471 4.69041C250.948 3.7846 249.342 3.12582 247.613 2.63174C245.883 2.13766 244.072 1.89062 242.219 1.89062H229.661C225.338 1.89062 221.797 5.39036 221.797 9.75474V48.046C221.797 50.7634 223.979 52.9456 226.696 52.9456H227.108C229.826 52.9456 232.008 50.7634 232.008 48.046V42.7346H242.219C245.019 42.7346 247.654 42.1994 250.124 41.1288C252.595 40.0583 254.777 38.6173 256.63 36.7645C258.482 34.9117 259.923 32.7295 260.994 30.2591C262.064 27.7887 262.6 25.1536 262.6 22.3538C262.559 20.4598 262.353 18.6482 261.859 16.9189ZM249.054 15.6425C250.042 15.519 250.906 15.766 251.442 16.3425C251.524 16.4248 251.606 16.5072 251.648 16.5895C252.677 17.9482 251.936 20.1304 250.042 21.5715C249.218 22.1891 248.313 22.5597 247.448 22.642C246.46 22.7655 245.595 22.5185 245.06 21.9421C244.977 21.8597 244.895 21.7774 244.854 21.695C243.825 20.3363 244.566 18.1541 246.46 16.713C247.242 16.0954 248.148 15.7249 249.054 15.6425ZM239.707 14.9014C239.79 14.0368 240.201 13.0898 240.778 12.3075C242.219 10.3723 244.401 9.67239 245.76 10.7017C245.842 10.7841 245.924 10.8252 246.007 10.9076C246.583 11.484 246.83 12.3487 246.707 13.2957C246.624 14.1603 246.213 15.1073 245.636 15.8896C244.195 17.8247 242.013 18.5247 240.654 17.4953C240.572 17.413 240.49 17.3718 240.407 17.2895C239.831 16.713 239.584 15.8484 239.707 14.9014ZM232.708 12.7192C233.243 11.4428 234.19 10.4135 235.219 10.0018C235.919 9.71357 236.578 9.71356 237.196 9.9606C237.484 10.0841 237.731 10.2488 237.937 10.4547C238.925 11.4428 239.131 13.3368 238.39 15.1073C237.854 16.3837 236.907 17.413 235.878 17.8247C235.178 18.1129 234.519 18.1129 233.902 17.8659C233.614 17.7424 233.367 17.5777 233.161 17.3718C232.173 16.3425 231.967 14.4897 232.708 12.7192ZM243.001 28.4886C243.248 29.5591 243.536 30.6296 243.042 31.7413C242.878 32.153 242.631 32.5236 242.301 32.8118C240.984 34.1294 238.884 34.1705 237.649 32.9353C236.99 32.2766 236.537 31.3708 236.043 30.4238C235.59 29.4768 235.096 28.5298 234.437 27.9122C233.819 27.2946 232.831 26.8005 231.926 26.3064C230.937 25.8124 230.032 25.3594 229.373 24.7007C228.096 23.4243 228.179 21.3656 229.455 20.0481C229.784 19.7187 230.114 19.4717 230.526 19.307C231.637 18.8129 232.708 19.0599 233.778 19.3481C234.684 19.5952 235.59 19.801 236.496 19.554C239.09 18.8952 240.654 18.5247 242.219 20.0893C243.783 21.6538 243.372 23.2184 242.754 25.8124C242.548 26.7182 242.795 27.5828 243.001 28.4886ZM252.347 27.1299C251.936 28.1592 250.906 29.1062 249.63 29.6415C247.86 30.3826 245.966 30.1767 244.977 29.1886C244.772 28.9827 244.607 28.7357 244.483 28.4474C244.236 27.8298 244.236 27.1299 244.525 26.4711C244.936 25.4418 245.966 24.4948 247.242 23.9595C249.012 23.2184 250.865 23.3831 251.895 24.3713L251.936 24.4125C252.142 24.6183 252.306 24.8654 252.43 25.1536C252.636 25.73 252.636 26.43 252.347 27.1299Z" fill="black"/>
</svg>
