<svg width="185" height="37" viewBox="0 0 185 37" fill="none" xmlns="http://www.w3.org/2000/svg">
<path d="M16.5965 4.85674C16.768 4.50927 17.0334 4.21673 17.3625 4.01218C17.6916 3.80762 18.0714 3.69922 18.4589 3.69922C18.8464 3.69922 19.2262 3.80762 19.5553 4.01218C19.8844 4.21673 20.1498 4.50927 20.3213 4.85674L23.8315 11.9694L31.6804 13.1118C32.0641 13.1671 32.4247 13.3288 32.7213 13.5784C33.0179 13.828 33.2387 14.1557 33.3588 14.5243C33.4789 14.8929 33.4934 15.2878 33.4007 15.6642C33.308 16.0406 33.1118 16.3836 32.8343 16.6543L27.1525 22.1908L28.4933 30.0074C28.559 30.3894 28.5164 30.7823 28.3704 31.1414C28.2245 31.5005 27.9809 31.8117 27.6673 32.0395C27.3536 32.2674 26.9825 32.403 26.5958 32.4309C26.2092 32.4588 25.8224 32.378 25.4793 32.1975L18.4589 28.505L11.4385 32.1975C11.0954 32.378 10.7087 32.4588 10.322 32.4309C9.93531 32.403 9.56417 32.2674 9.25055 32.0395C8.93692 31.8117 8.69334 31.5005 8.54736 31.1414C8.40138 30.7823 8.35882 30.3894 8.42451 30.0074L9.76304 22.1908L4.0858 16.652C3.80903 16.3813 3.6134 16.0387 3.52099 15.6628C3.42857 15.2869 3.44306 14.8926 3.56281 14.5245C3.68256 14.1563 3.90281 13.829 4.1987 13.5794C4.4946 13.3298 4.85436 13.1678 5.23741 13.1118L13.084 11.9694L16.5965 4.85674Z" fill="#FFD21E"/>
<path d="M53.5965 4.85674C53.768 4.50927 54.0334 4.21673 54.3625 4.01218C54.6916 3.80762 55.0714 3.69922 55.4589 3.69922C55.8464 3.69922 56.2262 3.80762 56.5553 4.01218C56.8844 4.21673 57.1498 4.50927 57.3213 4.85674L60.8315 11.9694L68.6804 13.1118C69.0641 13.1671 69.4247 13.3288 69.7213 13.5784C70.0179 13.828 70.2387 14.1557 70.3588 14.5243C70.4789 14.8929 70.4934 15.2878 70.4007 15.6642C70.308 16.0406 70.1118 16.3836 69.8343 16.6543L64.1525 22.1908L65.4933 30.0074C65.559 30.3894 65.5164 30.7823 65.3704 31.1414C65.2245 31.5005 64.9809 31.8117 64.6673 32.0395C64.3536 32.2674 63.9825 32.403 63.5958 32.4309C63.2092 32.4588 62.8224 32.378 62.4793 32.1975L55.4589 28.505L48.4385 32.1975C48.0954 32.378 47.7087 32.4588 47.322 32.4309C46.9353 32.403 46.5642 32.2674 46.2505 32.0395C45.9369 31.8117 45.6933 31.5005 45.5474 31.1414C45.4014 30.7823 45.3588 30.3894 45.4245 30.0074L46.763 22.1908L41.0858 16.652C40.809 16.3813 40.6134 16.0387 40.521 15.6628C40.4286 15.2869 40.4431 14.8926 40.5628 14.5245C40.6826 14.1563 40.9028 13.829 41.1987 13.5794C41.4946 13.3298 41.8544 13.1678 42.2374 13.1118L50.084 11.9694L53.5965 4.85674Z" fill="#FFD21E"/>
<path d="M91.4931 5.29952L91.4932 5.29945C91.5821 5.11927 91.7197 4.96757 91.8904 4.8615C92.061 4.75543 92.258 4.69922 92.4589 4.69922C92.6598 4.69922 92.8568 4.75543 93.0274 4.8615C93.1981 4.96754 93.3356 5.11918 93.4246 5.29929C93.4246 5.29934 93.4246 5.2994 93.4246 5.29945L96.9348 12.412L97.1674 12.8833L97.6875 12.959L105.536 14.1014L105.538 14.1016C105.737 14.1303 105.924 14.2141 106.077 14.3435C106.231 14.473 106.346 14.6429 106.408 14.834C106.47 15.0251 106.478 15.2299 106.43 15.4251C106.382 15.6201 106.28 15.7978 106.136 15.9381C106.136 15.9382 106.136 15.9382 106.136 15.9383C106.136 15.9383 106.136 15.9384 106.136 15.9385L100.455 21.4746L100.078 21.8415L100.167 22.3598L101.508 30.1764L101.508 30.1768C101.542 30.3749 101.52 30.5786 101.444 30.7648C101.368 30.9511 101.242 31.1124 101.079 31.2306C100.917 31.3487 100.724 31.419 100.524 31.4335C100.323 31.448 100.123 31.4061 99.9449 31.3125L99.9448 31.3124L92.9244 27.6199L92.4589 27.3751L91.9934 27.6199L84.973 31.3124L84.9729 31.3125C84.795 31.4061 84.5945 31.448 84.394 31.4335C84.1935 31.419 84.001 31.3487 83.8384 31.2306C83.6758 31.1124 83.5495 30.9511 83.4738 30.7648C83.3981 30.5786 83.376 30.3749 83.41 30.1768L83.4102 30.1761L84.7487 22.3596L84.8374 21.8418L84.4614 21.475L78.785 15.937C78.7848 15.9369 78.7847 15.9367 78.7845 15.9366C78.6412 15.7963 78.5399 15.6188 78.4921 15.4241C78.4442 15.2292 78.4517 15.0247 78.5138 14.8338C78.5759 14.6429 78.6901 14.4732 78.8435 14.3437C78.9969 14.2144 79.1834 14.1304 79.3819 14.1013C79.382 14.1013 79.382 14.1013 79.3821 14.1013L87.2281 12.959L87.748 12.8833L87.9806 12.4122L91.4931 5.29952Z" stroke="#FFD21E" stroke-width="2"/>
<path d="M128.493 5.29952L128.493 5.29945C128.582 5.11927 128.72 4.96757 128.89 4.8615C129.061 4.75543 129.258 4.69922 129.459 4.69922C129.66 4.69922 129.857 4.75543 130.027 4.8615C130.198 4.96754 130.336 5.11918 130.425 5.29929C130.425 5.29934 130.425 5.2994 130.425 5.29945L133.935 12.412L134.167 12.8833L134.687 12.959L142.536 14.1014L142.538 14.1016C142.737 14.1303 142.924 14.2141 143.077 14.3435C143.231 14.473 143.346 14.6429 143.408 14.834C143.47 15.0251 143.478 15.2299 143.43 15.4251C143.382 15.6201 143.28 15.7978 143.136 15.9381C143.136 15.9382 143.136 15.9382 143.136 15.9383C143.136 15.9383 143.136 15.9384 143.136 15.9385L137.455 21.4746L137.078 21.8415L137.167 22.3598L138.508 30.1764L138.508 30.1768C138.542 30.3749 138.52 30.5786 138.444 30.7648C138.368 30.9511 138.242 31.1124 138.079 31.2306C137.917 31.3487 137.724 31.419 137.524 31.4335C137.323 31.448 137.123 31.4061 136.945 31.3125L136.945 31.3124L129.924 27.6199L129.459 27.3751L128.993 27.6199L121.973 31.3124L121.973 31.3125C121.795 31.4061 121.594 31.448 121.394 31.4335C121.193 31.419 121.001 31.3487 120.838 31.2306C120.676 31.1124 120.549 30.9511 120.474 30.7648C120.398 30.5786 120.376 30.3749 120.41 30.1768L120.41 30.1761L121.749 22.3596L121.837 21.8418L121.461 21.475L115.785 15.937C115.785 15.9369 115.785 15.9367 115.784 15.9366C115.641 15.7963 115.54 15.6188 115.492 15.4241C115.444 15.2292 115.452 15.0247 115.514 14.8338C115.576 14.6429 115.69 14.4732 115.844 14.3437C115.997 14.2144 116.183 14.1304 116.382 14.1013C116.382 14.1013 116.382 14.1013 116.382 14.1013L124.228 12.959L124.748 12.8833L124.981 12.4122L128.493 5.29952Z" stroke="#FFD21E" stroke-width="2"/>
<path d="M165.493 5.29952L165.493 5.29945C165.582 5.11927 165.72 4.96757 165.89 4.8615C166.061 4.75543 166.258 4.69922 166.459 4.69922C166.66 4.69922 166.857 4.75543 167.027 4.8615C167.198 4.96754 167.336 5.11918 167.425 5.29929C167.425 5.29934 167.425 5.2994 167.425 5.29945L170.935 12.412L171.167 12.8833L171.687 12.959L179.536 14.1014L179.538 14.1016C179.737 14.1303 179.924 14.2141 180.077 14.3435C180.231 14.473 180.346 14.6429 180.408 14.834C180.47 15.0251 180.478 15.2299 180.43 15.4251C180.382 15.6201 180.28 15.7978 180.136 15.9381C180.136 15.9382 180.136 15.9382 180.136 15.9383C180.136 15.9383 180.136 15.9384 180.136 15.9385L174.455 21.4746L174.078 21.8415L174.167 22.3598L175.508 30.1764L175.508 30.1768C175.542 30.3749 175.52 30.5786 175.444 30.7648C175.368 30.9511 175.242 31.1124 175.079 31.2306C174.917 31.3487 174.724 31.419 174.524 31.4335C174.323 31.448 174.123 31.4061 173.945 31.3125L173.945 31.3124L166.924 27.6199L166.459 27.3751L165.993 27.6199L158.973 31.3124L158.973 31.3125C158.795 31.4061 158.594 31.448 158.394 31.4335C158.193 31.419 158.001 31.3487 157.838 31.2306C157.676 31.1124 157.549 30.9511 157.474 30.7648C157.398 30.5786 157.376 30.3749 157.41 30.1768L157.41 30.1761L158.749 22.3596L158.837 21.8418L158.461 21.475L152.785 15.937C152.785 15.9369 152.785 15.9367 152.784 15.9366C152.641 15.7963 152.54 15.6188 152.492 15.4241C152.444 15.2292 152.452 15.0247 152.514 14.8338C152.576 14.6429 152.69 14.4732 152.844 14.3437C152.997 14.2144 153.183 14.1304 153.382 14.1013C153.382 14.1013 153.382 14.1013 153.382 14.1013L161.228 12.959L161.748 12.8833L161.981 12.4122L165.493 5.29952Z" stroke="#FFD21E" stroke-width="2"/>
</svg>
