<svg width="80" height="16" viewBox="0 0 80 16" fill="none" xmlns="http://www.w3.org/2000/svg">
<path d="M7.19176 2.10117C7.2661 1.95061 7.38107 1.82385 7.52368 1.73522C7.66629 1.64658 7.83085 1.59961 7.99876 1.59961C8.16667 1.59961 8.33123 1.64658 8.47384 1.73522C8.61645 1.82385 8.73143 1.95061 8.80576 2.10117L10.3268 5.18317L13.7278 5.67817C13.894 5.70215 14.0503 5.77219 14.1788 5.88035C14.3073 5.98851 14.403 6.13049 14.455 6.29021C14.5071 6.44994 14.5133 6.62103 14.4732 6.78414C14.433 6.94725 14.348 7.09587 14.2278 7.21317L11.7658 9.61217L12.3468 12.9992C12.3752 13.1647 12.3568 13.3349 12.2935 13.4906C12.2303 13.6462 12.1247 13.781 11.9888 13.8797C11.8529 13.9785 11.6921 14.0372 11.5246 14.0493C11.357 14.0614 11.1894 14.0264 11.0408 13.9482L7.99876 12.3482L4.95676 13.9482C4.80809 14.0264 4.6405 14.0614 4.47296 14.0493C4.30541 14.0372 4.14459 13.9785 4.00869 13.8797C3.8728 13.781 3.76725 13.6462 3.70399 13.4906C3.64074 13.3349 3.6223 13.1647 3.65076 12.9992L4.23076 9.61217L1.77076 7.21217C1.65083 7.0949 1.56606 6.94644 1.52602 6.78354C1.48598 6.62065 1.49225 6.44981 1.54414 6.2903C1.59603 6.13078 1.69147 5.98894 1.81968 5.88078C1.9479 5.77262 2.10378 5.70245 2.26976 5.67817L5.66976 5.18317L7.19176 2.10117Z" fill="#FFD21E"/>
<path d="M23.1918 2.10117C23.2661 1.95061 23.3811 1.82385 23.5237 1.73522C23.6663 1.64658 23.8309 1.59961 23.9988 1.59961C24.1667 1.59961 24.3312 1.64658 24.4738 1.73522C24.6165 1.82385 24.7314 1.95061 24.8058 2.10117L26.3268 5.18317L29.7278 5.67817C29.894 5.70215 30.0503 5.77219 30.1788 5.88035C30.3073 5.98851 30.403 6.13049 30.455 6.29021C30.5071 6.44994 30.5133 6.62103 30.4732 6.78414C30.433 6.94725 30.348 7.09587 30.2278 7.21317L27.7658 9.61217L28.3468 12.9992C28.3752 13.1647 28.3568 13.3349 28.2935 13.4906C28.2303 13.6462 28.1247 13.781 27.9888 13.8797C27.8529 13.9785 27.6921 14.0372 27.5246 14.0493C27.357 14.0614 27.1894 14.0264 27.0408 13.9482L23.9988 12.3482L20.9568 13.9482C20.8081 14.0264 20.6405 14.0614 20.473 14.0493C20.3054 14.0372 20.1446 13.9785 20.0087 13.8797C19.8728 13.781 19.7673 13.6462 19.704 13.4906C19.6407 13.3349 19.6223 13.1647 19.6508 12.9992L20.2308 9.61217L17.7708 7.21217C17.6508 7.0949 17.5661 6.94644 17.526 6.78354C17.486 6.62065 17.4923 6.44981 17.5441 6.2903C17.596 6.13078 17.6915 5.98894 17.8197 5.88078C17.9479 5.77262 18.1038 5.70245 18.2698 5.67817L21.6698 5.18317L23.1918 2.10117Z" fill="#FFD21E"/>
<path d="M39.1918 2.10117C39.2661 1.95061 39.3811 1.82385 39.5237 1.73522C39.6663 1.64658 39.8309 1.59961 39.9988 1.59961C40.1667 1.59961 40.3312 1.64658 40.4738 1.73522C40.6165 1.82385 40.7314 1.95061 40.8058 2.10117L42.3268 5.18317L45.7278 5.67817C45.894 5.70215 46.0503 5.77219 46.1788 5.88035C46.3073 5.98851 46.403 6.13049 46.455 6.29021C46.5071 6.44994 46.5133 6.62103 46.4732 6.78414C46.433 6.94725 46.348 7.09587 46.2278 7.21317L43.7658 9.61217L44.3468 12.9992C44.3752 13.1647 44.3568 13.3349 44.2935 13.4906C44.2303 13.6462 44.1247 13.781 43.9888 13.8797C43.8529 13.9785 43.6921 14.0372 43.5246 14.0493C43.357 14.0614 43.1894 14.0264 43.0408 13.9482L39.9988 12.3482L36.9568 13.9482C36.8081 14.0264 36.6405 14.0614 36.473 14.0493C36.3054 14.0372 36.1446 13.9785 36.0087 13.8797C35.8728 13.781 35.7673 13.6462 35.704 13.4906C35.6407 13.3349 35.6223 13.1647 35.6508 12.9992L36.2308 9.61217L33.7708 7.21217C33.6508 7.0949 33.5661 6.94644 33.526 6.78354C33.486 6.62065 33.4923 6.44981 33.5441 6.2903C33.596 6.13078 33.6915 5.98894 33.8197 5.88078C33.9479 5.77262 34.1038 5.70245 34.2698 5.67817L37.6698 5.18317L39.1918 2.10117Z" fill="#FFD21E"/>
<path d="M55.1918 2.10117C55.2661 1.95061 55.3811 1.82385 55.5237 1.73522C55.6663 1.64658 55.8309 1.59961 55.9988 1.59961C56.1667 1.59961 56.3312 1.64658 56.4738 1.73522C56.6165 1.82385 56.7314 1.95061 56.8058 2.10117L58.3268 5.18317L61.7278 5.67817C61.894 5.70215 62.0503 5.77219 62.1788 5.88035C62.3073 5.98851 62.403 6.13049 62.455 6.29021C62.5071 6.44994 62.5133 6.62103 62.4732 6.78414C62.433 6.94725 62.348 7.09587 62.2278 7.21317L59.7658 9.61217L60.3468 12.9992C60.3752 13.1647 60.3568 13.3349 60.2935 13.4906C60.2303 13.6462 60.1247 13.781 59.9888 13.8797C59.8529 13.9785 59.6921 14.0372 59.5246 14.0493C59.357 14.0614 59.1894 14.0264 59.0408 13.9482L55.9988 12.3482L52.9568 13.9482C52.8081 14.0264 52.6405 14.0614 52.473 14.0493C52.3054 14.0372 52.1446 13.9785 52.0087 13.8797C51.8728 13.781 51.7673 13.6462 51.704 13.4906C51.6407 13.3349 51.6223 13.1647 51.6508 12.9992L52.2308 9.61217L49.7708 7.21217C49.6508 7.0949 49.5661 6.94644 49.526 6.78354C49.486 6.62065 49.4923 6.44981 49.5441 6.2903C49.596 6.13078 49.6915 5.98894 49.8197 5.88078C49.9479 5.77262 50.1038 5.70245 50.2698 5.67817L53.6698 5.18317L55.1918 2.10117Z" fill="#FFD21E"/>
<path d="M71.1918 2.10117C71.2661 1.95061 71.3811 1.82385 71.5237 1.73522C71.6663 1.64658 71.8309 1.59961 71.9988 1.59961C72.1667 1.59961 72.3312 1.64658 72.4738 1.73522C72.6165 1.82385 72.7314 1.95061 72.8058 2.10117L74.3268 5.18317L77.7278 5.67817C77.894 5.70215 78.0503 5.77219 78.1788 5.88035C78.3073 5.98851 78.403 6.13049 78.455 6.29021C78.5071 6.44994 78.5133 6.62103 78.4732 6.78414C78.433 6.94725 78.348 7.09587 78.2278 7.21317L75.7658 9.61217L76.3468 12.9992C76.3752 13.1647 76.3568 13.3349 76.2935 13.4906C76.2303 13.6462 76.1247 13.781 75.9888 13.8797C75.8529 13.9785 75.6921 14.0372 75.5246 14.0493C75.357 14.0614 75.1894 14.0264 75.0408 13.9482L71.9988 12.3482L68.9568 13.9482C68.8081 14.0264 68.6405 14.0614 68.473 14.0493C68.3054 14.0372 68.1446 13.9785 68.0087 13.8797C67.8728 13.781 67.7673 13.6462 67.704 13.4906C67.6407 13.3349 67.6223 13.1647 67.6508 12.9992L68.2308 9.61217L65.7708 7.21217C65.6508 7.0949 65.5661 6.94644 65.526 6.78354C65.486 6.62065 65.4923 6.44981 65.5441 6.2903C65.596 6.13078 65.6915 5.98894 65.8197 5.88078C65.9479 5.77262 66.1038 5.70245 66.2698 5.67817L69.6698 5.18317L71.1918 2.10117Z" fill="#FFD21E"/>
</svg>
