<?xml version="1.0" encoding="UTF-8"?>
<svg id="Capa_1" data-name="Capa 1" xmlns="http://www.w3.org/2000/svg" viewBox="0 0 304.17 116.87">
  <defs>
    <style>
      .cls-1 {
        fill: #df8c40;
      }

      .cls-2 {
        fill: #fff;
      }
    </style>
  </defs>
  <path class="cls-1" d="m214.78,77.78h-1.88c-1.05,0-1.89-.85-1.89-1.89v-24.55c0-1.05.85-1.89,1.89-1.89h1.88c1.05,0,1.89.85,1.89,1.89v7.56c0,1.05.85,1.89,1.89,1.89h7.53c1.05,0,1.89-.85,1.89-1.89v-7.56c0-1.05.85-1.89,1.89-1.89h1.88c1.05,0,1.89.85,1.89,1.89v24.55c0,1.05-.85,1.89-1.89,1.89h-1.88c-1.05,0-1.89-.85-1.89-1.89v-7.53c0-1.05-.85-1.89-1.89-1.89h-7.53c-1.05,0-1.89.85-1.89,1.89v7.53c0,1.05-.85,1.89-1.89,1.89Z"/>
  <path class="cls-1" d="m230.41,61.41h0c-1.39,0-2.51-1.12-2.51-2.51v-16.81c0-3.18,2.58-5.76,5.76-5.76h4.28c.92,0,1.81.12,2.66.36.85.24,1.65.58,2.39,1.02.74.44,1.42.96,2.03,1.57.61.61,1.14,1.29,1.57,2.04.44.75.78,1.55,1.02,2.4.24.85.36,1.74.36,2.66,0,1.38-.26,2.67-.79,3.89-.52,1.22-1.24,2.28-2.15,3.19-.91.91-1.97,1.63-3.19,2.15s-2.52.79-3.89.79h-2.51c-1.39,0-2.51,1.12-2.51,2.51h0c0,1.39-1.12,2.51-2.51,2.51Z"/>
  <g>
    <path class="cls-2" d="m242.02,43.39c-.41.05-.84.23-1.22.51-.9.67-1.23,1.69-.75,2.33.03.04.06.08.1.12.27.27.67.38,1.13.33.41-.05.84-.23,1.22-.51.9-.67,1.23-1.69.76-2.33-.03-.04-.06-.08-.1-.12-.27-.27-.67-.38-1.12-.33Z"/>
    <path class="cls-2" d="m237.97,44.16s.08.07.12.1c.64.47,1.66.14,2.33-.76.28-.38.46-.81.51-1.22.05-.46-.07-.86-.33-1.12-.04-.04-.08-.07-.12-.1-.64-.47-1.66-.14-2.33.76-.28.38-.46.81-.51,1.22-.05.46.07.86.33,1.13Z"/>
    <path class="cls-2" d="m234.93,44.44c.29.12.61.12.93-.01.49-.2.92-.68,1.17-1.28.34-.84.26-1.71-.21-2.19-.1-.1-.22-.18-.35-.24h0c-.29-.12-.61-.12-.93.01-.49.2-.92.68-1.17,1.28-.34.84-.26,1.71.21,2.19.1.1.22.18.35.24h0Z"/>
    <path class="cls-2" d="m241.17,47.28c-.6.25-1.08.69-1.28,1.17-.13.32-.14.64-.01.93h0c.06.13.14.25.24.35.47.47,1.35.56,2.19.21.6-.25,1.08-.69,1.28-1.18.13-.32.14-.64.01-.93h0c-.06-.13-.14-.25-.24-.35h-.01c-.47-.47-1.35-.55-2.17-.21Z"/>
    <path class="cls-2" d="m238.86,45.46c-.73-.73-1.46-.54-2.68-.24-.44.11-.85,0-1.28-.1-.5-.12-1.01-.25-1.52-.01-.19.08-.36.2-.51.35-.62.62-.64,1.6-.05,2.19.3.3.73.52,1.19.75.44.22.89.45,1.18.75s.52.74.74,1.18c.23.45.45.88.75,1.19.59.59,1.57.57,2.18-.05.15-.15.26-.32.35-.51.24-.52.11-1.03-.01-1.52-.11-.43-.21-.84-.1-1.28.3-1.22.48-1.96-.24-2.68Z"/>
  </g>
  <path class="cls-1" d="m35.71,74.08h-1.88c-1.05,0-1.89-.85-1.89-1.89v-24.55c0-1.05.85-1.89,1.89-1.89h1.88c1.05,0,1.89.85,1.89,1.89v7.56c0,1.05.85,1.89,1.89,1.89h7.53c1.05,0,1.89-.85,1.89-1.89v-7.56c0-1.05.85-1.89,1.89-1.89h1.88c1.05,0,1.89.85,1.89,1.89v24.55c0,1.05-.85,1.89-1.89,1.89h-1.88c-1.05,0-1.89-.85-1.89-1.89v-7.53c0-1.05-.85-1.89-1.89-1.89h-7.53c-1.05,0-1.89.85-1.89,1.89v7.53c0,1.05-.85,1.89-1.89,1.89Z"/>
  <g>
    <path class="cls-1" d="m127.03,68.05h0c-1.39,0-2.51-1.12-2.51-2.51v-16.81c0-3.18,2.58-5.76,5.76-5.76h4.28c.92,0,1.81.12,2.66.36.85.24,1.65.58,2.39,1.02.74.44,1.42.96,2.03,1.57.61.61,1.14,1.29,1.57,2.04.44.75.78,1.55,1.02,2.4.24.85.36,1.74.36,2.66,0,1.38-.26,2.67-.79,3.89-.52,1.22-1.24,2.28-2.15,3.19-.91.91-1.97,1.63-3.19,2.15s-2.52.79-3.89.79h-2.51c-1.39,0-2.51,1.12-2.51,2.51h0c0,1.39-1.12,2.51-2.51,2.51Z"/>
    <g>
      <path class="cls-2" d="m138.65,50.03c-.41.05-.84.23-1.22.51-.9.67-1.23,1.69-.75,2.33.03.04.06.08.1.12.27.27.67.38,1.13.33.41-.05.84-.23,1.22-.51.9-.67,1.23-1.69.76-2.33-.03-.04-.06-.08-.1-.12-.27-.27-.67-.38-1.12-.33Z"/>
      <path class="cls-2" d="m134.6,50.81s.08.07.12.1c.64.47,1.66.14,2.33-.76.28-.38.46-.81.51-1.22.05-.46-.07-.86-.33-1.12-.04-.04-.08-.07-.12-.1-.64-.47-1.66-.14-2.33.76-.28.38-.46.81-.51,1.22-.05.46.07.86.33,1.13Z"/>
      <path class="cls-2" d="m131.56,51.08c.29.12.61.12.93-.01.49-.2.92-.68,1.17-1.28.34-.84.26-1.71-.21-2.19-.1-.1-.22-.18-.35-.24h0c-.29-.12-.61-.12-.93.01-.49.2-.92.68-1.17,1.28-.34.84-.26,1.71.21,2.19.1.1.22.18.35.24h0Z"/>
      <path class="cls-2" d="m137.8,53.92c-.6.25-1.08.69-1.28,1.17-.13.32-.14.64-.01.93h0c.06.13.14.25.24.35.47.47,1.35.56,2.19.21.6-.25,1.08-.69,1.28-1.18.13-.32.14-.64.01-.93h0c-.06-.13-.14-.25-.24-.35h-.01c-.47-.47-1.35-.55-2.17-.21Z"/>
      <path class="cls-2" d="m135.48,52.1c-.73-.73-1.46-.54-2.68-.24-.44.11-.85,0-1.28-.1-.5-.12-1.01-.25-1.52-.01-.19.08-.36.2-.51.35-.62.62-.64,1.6-.05,2.19.3.3.73.52,1.19.75.44.22.89.45,1.18.75s.52.74.74,1.18c.23.45.45.88.75,1.19.59.59,1.57.57,2.18-.05.15-.15.26-.32.35-.51.24-.52.11-1.03-.01-1.52-.11-.43-.21-.84-.1-1.28.3-1.22.48-1.96-.24-2.68Z"/>
    </g>
  </g>
</svg>