<svg width="48" height="48" viewBox="0 0 48 48" fill="none" xmlns="http://www.w3.org/2000/svg">
<path d="M42 24V38C42 39.0609 41.5786 40.0783 40.8284 40.8284C40.0783 41.5786 39.0609 42 38 42H10C8.93913 42 7.92172 41.5786 7.17157 40.8284C6.42143 40.0783 6 39.0609 6 38V24H42ZM32 6C32.5304 6 33.0391 6.21071 33.4142 6.58579C33.7893 6.96086 34 7.46957 34 8V10H38C39.0609 10 40.0783 10.4214 40.8284 11.1716C41.5786 11.9217 42 12.9391 42 14V20H6V14C6 12.9391 6.42143 11.9217 7.17157 11.1716C7.92172 10.4214 8.93913 10 10 10H14V8C14 7.46957 14.2107 6.96086 14.5858 6.58579C14.9609 6.21071 15.4696 6 16 6C16.5304 6 17.0391 6.21071 17.4142 6.58579C17.7893 6.96086 18 7.46957 18 8V10H30V8C30 7.46957 30.2107 6.96086 30.5858 6.58579C30.9609 6.21071 31.4696 6 32 6Z" fill="#0A6141"/>
</svg>
