<svg width="24" height="24" viewBox="0 0 24 24" fill="none" xmlns="http://www.w3.org/2000/svg">
<path d="M12 18.9238C11.7369 18.9238 11.4903 18.883 11.2601 18.8014C11.0299 18.7199 10.8161 18.5798 10.6188 18.3812L1.5426 9.30493C1.18087 8.9432 1 8.48281 1 7.92377C1 7.36472 1.18087 6.90433 1.5426 6.5426C1.90433 6.18087 2.36472 6 2.92377 6C3.48281 6 3.9432 6.18087 4.30493 6.5426L12 14.2377L19.6951 6.5426C20.0568 6.18087 20.5172 6 21.0762 6C21.6353 6 22.0957 6.18087 22.4574 6.5426C22.8191 6.90433 23 7.36472 23 7.92377C23 8.48281 22.8191 8.9432 22.4574 9.30493L13.3812 18.3812C13.1839 18.5785 12.9701 18.7186 12.7399 18.8014C12.5097 18.8843 12.2631 18.9251 12 18.9238Z" fill="#DF8B3F"/>
</svg>
