<svg width="24" height="24" viewBox="0 0 24 24" fill="none" xmlns="http://www.w3.org/2000/svg">
<path d="M12 10.716L4.30493 18.3796C3.9432 18.7399 3.48281 18.92 2.92377 18.92C2.36472 18.92 1.90433 18.7399 1.5426 18.3796C1.18087 18.0194 1 17.5609 1 17.0041C1 16.4474 1.18087 15.9888 1.5426 15.6286L10.6188 6.58951C11.0135 6.1965 11.4738 6 12 6C12.5262 6 12.9865 6.1965 13.3812 6.58951L22.4574 15.6286C22.8191 15.9888 23 16.4474 23 17.0041C23 17.5609 22.8191 18.0194 22.4574 18.3796C22.0957 18.7399 21.6353 18.92 21.0762 18.92C20.5172 18.92 20.0568 18.7399 19.6951 18.3796L12 10.716Z" fill="#DF8B3F"/>
</svg>
