<svg width="32" height="32" viewBox="0 0 32 32" fill="none" xmlns="http://www.w3.org/2000/svg">
<path d="M30.647 11.4212C30.3002 10.5968 29.7239 10.0024 28.9802 9.70305L28.9702 9.6993C28.6316 9.5667 28.2712 9.49886 27.9077 9.4993H27.8677C26.1652 9.52492 24.427 10.9718 23.5433 13.0999C22.8952 14.6562 22.8208 16.3299 23.3445 17.5774C23.6908 18.4024 24.2683 18.9968 25.0152 19.2962L25.0233 19.2993C25.3618 19.4318 25.7222 19.4996 26.0858 19.4993C27.8045 19.4993 29.5608 18.0524 30.4608 15.8962C31.1008 14.3418 31.1714 12.6693 30.647 11.4212ZM23.8445 20.5999C22.8627 20.0099 21.9345 19.4518 21.3283 18.4493C19.6558 15.6743 18.6458 13.9993 15.9977 13.9993C13.3495 13.9993 12.337 15.6743 10.6608 18.4493C10.0533 19.453 9.12328 20.0118 8.13828 20.6043C7.00891 21.283 5.84203 21.9843 5.33828 23.3643C5.14245 23.8618 5.04379 24.3922 5.04766 24.9268C5.04766 27.1737 6.79766 29.0018 8.94766 29.0018C10.057 29.0018 11.2377 28.6174 12.487 28.2105C13.6883 27.8193 14.9302 27.4149 16.0039 27.4149C17.0777 27.4149 18.3164 27.8193 19.5133 28.2105C20.7602 28.6149 21.9352 28.9993 23.0477 28.9993C25.1945 28.9993 26.9414 27.1712 26.9414 24.9243C26.9432 24.3893 26.8424 23.8589 26.6445 23.3618C26.1408 21.9805 24.9733 21.2787 23.8445 20.5999ZM9.37266 11.8024C10.1164 12.7355 11.0602 13.2493 12.0302 13.2493C12.1626 13.2493 12.2948 13.2395 12.4258 13.2199C14.4489 12.9224 15.7095 10.4537 15.2958 7.59492C15.1227 6.39305 14.6602 5.27367 13.9977 4.44367C13.2552 3.51242 12.3102 2.9993 11.3408 2.9993C11.2084 2.9993 11.0761 3.00912 10.9452 3.02867C8.92203 3.32617 7.66141 5.79492 8.07516 8.65367C8.24766 9.85367 8.71016 10.9718 9.37266 11.8024ZM19.5702 13.2199C19.7011 13.2395 19.8334 13.2493 19.9658 13.2493C20.9364 13.2493 21.8795 12.7355 22.6233 11.8024C23.2852 10.9718 23.7452 9.85367 23.9202 8.65242C24.3339 5.79492 23.0733 3.32617 21.0502 3.02742C20.9192 3.00787 20.787 2.99805 20.6545 2.99805C19.6852 2.9993 18.7402 3.51242 17.9977 4.44367C17.3352 5.27367 16.8727 6.39305 16.7002 7.59617C16.2864 10.4537 17.547 12.9224 19.5702 13.2199ZM6.97203 19.2993L6.98078 19.2962C7.72641 18.9968 8.30328 18.403 8.64891 17.5787C9.17266 16.3287 9.09891 14.6568 8.45203 13.1005C7.55641 10.9468 5.80078 9.4993 4.08391 9.4993C3.72033 9.49877 3.35991 9.56662 3.02141 9.6993L3.01266 9.70242C2.26891 9.9993 1.69203 10.5955 1.34641 11.4199C0.822657 12.6699 0.896407 14.3418 1.54328 15.898C2.43891 18.0518 4.19453 19.4993 5.91141 19.4993C6.27435 19.4996 6.63412 19.4317 6.97203 19.2993Z" fill="#DF8B3F"/>
</svg>
