<svg width="48" height="48" viewBox="0 0 48 48" fill="none" xmlns="http://www.w3.org/2000/svg">
<path d="M45.9706 17.1347C45.4502 15.8981 44.5859 15.0066 43.4702 14.5575L43.4552 14.5519C42.9475 14.353 42.4068 14.2512 41.8615 14.2519H41.8015C39.2477 14.2903 36.6406 16.4606 35.3149 19.6528C34.3427 21.9872 34.2312 24.4978 35.0168 26.3691C35.5362 27.6066 36.4024 28.4981 37.5227 28.9472L37.5349 28.9519C38.0428 29.1506 38.5833 29.2524 39.1287 29.2519C41.7068 29.2519 44.3412 27.0816 45.6912 23.8472C46.6512 21.5156 46.7571 19.0069 45.9706 17.1347ZM35.7668 30.9028C34.294 30.0178 32.9018 29.1806 31.9924 27.6769C29.4837 23.5144 27.9687 21.0019 23.9965 21.0019C20.0243 21.0019 18.5055 23.5144 15.9912 27.6769C15.0799 29.1825 13.6849 30.0206 12.2074 30.9094C10.5134 31.9275 8.76305 32.9794 8.00742 35.0494C7.71367 35.7956 7.56569 36.5912 7.57149 37.3931C7.57149 40.7634 10.1965 43.5056 13.4215 43.5056C15.0855 43.5056 16.8565 42.9291 18.7305 42.3187C20.5324 41.7319 22.3952 41.1253 24.0059 41.1253C25.6165 41.1253 27.4746 41.7319 29.2699 42.3187C31.1402 42.9253 32.9027 43.5019 34.5715 43.5019C37.7918 43.5019 40.4121 40.7597 40.4121 37.3894C40.4148 36.5868 40.2636 35.7912 39.9668 35.0456C39.2112 32.9737 37.4599 31.9209 35.7668 30.9028ZM14.059 17.7066C15.1746 19.1062 16.5902 19.8769 18.0452 19.8769C18.2439 19.8769 18.4422 19.8621 18.6387 19.8328C21.6734 19.3866 23.5643 15.6834 22.9437 11.3953C22.684 9.5925 21.9902 7.91344 20.9965 6.66844C19.8827 5.27156 18.4652 4.50188 17.0112 4.50188C16.8125 4.50188 16.6142 4.51661 16.4177 4.54594C13.383 4.99219 11.4921 8.69531 12.1127 12.9834C12.3715 14.7834 13.0652 16.4606 14.059 17.7066ZM29.3552 19.8328C29.5517 19.8621 29.75 19.8769 29.9487 19.8769C31.4046 19.8769 32.8193 19.1062 33.9349 17.7066C34.9277 16.4606 35.6177 14.7834 35.8802 12.9816C36.5009 8.69531 34.6099 4.99219 31.5752 4.54406C31.3788 4.51473 31.1804 4.50001 30.9818 4.5C29.5277 4.50187 28.1102 5.27156 26.9965 6.66844C26.0027 7.91344 25.309 9.5925 25.0502 11.3972C24.4296 15.6834 26.3205 19.3866 29.3552 19.8328ZM10.458 28.9519L10.4712 28.9472C11.5896 28.4981 12.4549 27.6075 12.9734 26.3709C13.759 24.4959 13.6484 21.9881 12.678 19.6537C11.3346 16.4231 8.70117 14.2519 6.12586 14.2519C5.5805 14.2511 5.03986 14.3529 4.53211 14.5519L4.51899 14.5566C3.40336 15.0019 2.53805 15.8962 2.01961 17.1328C1.23399 19.0078 1.34461 21.5156 2.31492 23.85C3.65836 27.0806 6.2918 29.2519 8.86711 29.2519C9.41152 29.2523 9.95118 29.1505 10.458 28.9519Z" fill="white"/>
</svg>
