<svg width="48" height="48" viewBox="0 0 48 48" fill="none" xmlns="http://www.w3.org/2000/svg">
<path d="M23.0001 2.46484V17.2103C23.0001 19.7817 24.2053 21.0074 26.7767 21.0074H41.3215V39.2483C41.3215 43.4268 39.2524 45.5363 35.0935 45.5363H13.7593C9.62097 45.5363 7.53125 43.4474 7.53125 39.2483V8.77256C7.53125 4.59399 9.62097 2.46484 13.7593 2.46484H23.0001ZM24.4315 33.088C19.9281 33.088 17.1261 36.1763 17.1261 38.4143C17.1261 39.178 17.6121 39.568 18.9827 39.568H29.8787C31.2407 39.568 31.7267 39.178 31.7267 38.4143C31.7267 36.1771 28.9238 33.088 24.4307 33.088M24.4307 23.9706C22.5733 23.9706 20.9593 25.5931 20.9593 27.7188C20.9593 29.8703 22.5733 31.5357 24.4307 31.5357C26.295 31.5357 27.8995 29.8694 27.8995 27.7008C27.8995 25.558 26.2873 23.9706 24.4307 23.9706ZM25.7301 2.68599C26.5744 2.82656 27.4187 3.40942 28.3418 4.37284L39.4333 15.6434C40.377 16.6274 40.9598 17.4314 41.1004 18.2551H26.8375C26.1141 18.2551 25.7318 17.8934 25.7318 17.17L25.7301 2.68599Z" fill="#0A6141"/>
</svg>
