<svg width="56" height="56" viewBox="0 0 56 56" fill="none" xmlns="http://www.w3.org/2000/svg">
<rect width="56" height="56" rx="28" fill="#DF8B3F"/>
<path d="M28 34.9238C27.7369 34.9238 27.4903 34.883 27.2601 34.8014C27.0299 34.7199 26.8161 34.5798 26.6188 34.3812L17.5426 25.3049C17.1809 24.9432 17 24.4828 17 23.9238C17 23.3647 17.1809 22.9043 17.5426 22.5426C17.9043 22.1809 18.3647 22 18.9238 22C19.4828 22 19.9432 22.1809 20.3049 22.5426L28 30.2377L35.6951 22.5426C36.0568 22.1809 36.5172 22 37.0762 22C37.6353 22 38.0957 22.1809 38.4574 22.5426C38.8191 22.9043 39 23.3647 39 23.9238C39 24.4828 38.8191 24.9432 38.4574 25.3049L29.3812 34.3812C29.1839 34.5785 28.9701 34.7186 28.7399 34.8014C28.5097 34.8843 28.2631 34.9251 28 34.9238Z" fill="white"/>
</svg>
