<svg width="56" height="56" viewBox="0 0 56 56" fill="none" xmlns="http://www.w3.org/2000/svg">
<rect width="56" height="56" rx="28" fill="#DF8B3F"/>
<path d="M28 26.716L20.3049 34.3796C19.9432 34.7399 19.4828 34.92 18.9238 34.92C18.3647 34.92 17.9043 34.7399 17.5426 34.3796C17.1809 34.0194 17 33.5609 17 33.0041C17 32.4474 17.1809 31.9888 17.5426 31.6286L26.6188 22.5895C27.0135 22.1965 27.4738 22 28 22C28.5262 22 28.9865 22.1965 29.3812 22.5895L38.4574 31.6286C38.8191 31.9888 39 32.4474 39 33.0041C39 33.5609 38.8191 34.0194 38.4574 34.3796C38.0957 34.7399 37.6353 34.92 37.0762 34.92C36.5172 34.92 36.0568 34.7399 35.6951 34.3796L28 26.716Z" fill="white"/>
</svg>
