<svg width="52" height="52" viewBox="0 0 52 52" fill="none" xmlns="http://www.w3.org/2000/svg">
<rect x="1" y="1" width="50" height="50" rx="25" fill="#0A6141"/>
<rect x="1" y="1" width="50" height="50" rx="25" stroke="#0A6141" stroke-width="2"/>
<path d="M19.3359 19.332H18.0026C17.2954 19.332 16.6171 19.613 16.117 20.1131C15.6169 20.6132 15.3359 21.2915 15.3359 21.9987V33.9987C15.3359 34.7059 15.6169 35.3842 16.117 35.8843C16.6171 36.3844 17.2954 36.6654 18.0026 36.6654H30.0026C30.7098 36.6654 31.3881 36.3844 31.8882 35.8843C32.3883 35.3842 32.6693 34.7059 32.6693 33.9987V32.6654" stroke="white" stroke-width="2.66667" stroke-linecap="round" stroke-linejoin="round"/>
<path d="M31.3333 16.6668L35.3333 20.6668M37.18 18.7801C37.7051 18.255 38.0001 17.5428 38.0001 16.8001C38.0001 16.0575 37.7051 15.3453 37.18 14.8201C36.6549 14.295 35.9426 14 35.2 14C34.4574 14 33.7451 14.295 33.22 14.8201L22 26.0001V30.0001H26L37.18 18.7801Z" stroke="white" stroke-width="2.66667" stroke-linecap="round" stroke-linejoin="round"/>
</svg>
