<svg width="28" height="27" viewBox="0 0 28 27" fill="none" xmlns="http://www.w3.org/2000/svg">
<path d="M13.9974 0.166016C12.2464 0.166016 10.5126 0.510893 8.89495 1.18096C7.27728 1.85102 5.80742 2.83314 4.56931 4.07126C2.06882 6.57174 0.664063 9.96313 0.664062 13.4993C0.664063 19.3927 4.49073 24.3927 9.78406 26.166C10.4507 26.2727 10.6641 25.8594 10.6641 25.4993V23.246C6.97073 24.046 6.18406 21.4593 6.18406 21.4593C5.57073 19.9127 4.70406 19.4993 4.70406 19.4993C3.49073 18.6727 4.7974 18.6993 4.7974 18.6993C6.13073 18.7927 6.8374 20.0727 6.8374 20.0727C7.9974 22.0993 9.9574 21.4993 10.7174 21.1793C10.8374 20.3127 11.1841 19.726 11.5574 19.3927C8.5974 19.0593 5.49073 17.9127 5.49073 12.8327C5.49073 11.3527 5.9974 10.166 6.86406 9.21935C6.73073 8.88602 6.26406 7.49935 6.9974 5.69935C6.9974 5.69935 8.1174 5.33935 10.6641 7.05935C11.7174 6.76602 12.8641 6.61935 13.9974 6.61935C15.1307 6.61935 16.2774 6.76602 17.3307 7.05935C19.8774 5.33935 20.9974 5.69935 20.9974 5.69935C21.7307 7.49935 21.2641 8.88602 21.1307 9.21935C21.9974 10.166 22.5041 11.3527 22.5041 12.8327C22.5041 17.926 19.3841 19.046 16.4107 19.3793C16.8907 19.7927 17.3307 20.606 17.3307 21.846V25.4993C17.3307 25.8594 17.5441 26.286 18.2241 26.166C23.5174 24.3793 27.3307 19.3927 27.3307 13.4993C27.3307 11.7484 26.9859 10.0146 26.3158 8.3969C25.6457 6.77923 24.6636 5.30937 23.4255 4.07126C22.1874 2.83314 20.7175 1.85102 19.0998 1.18096C17.4822 0.510893 15.7484 0.166016 13.9974 0.166016Z" fill="black"/>
</svg>
